<svg width="506" height="462" viewBox="0 0 506 462" fill="none" xmlns="http://www.w3.org/2000/svg">
<path d="M271.979 462C386.685 462 479.673 455.598 479.673 447.702C479.673 439.805 386.685 433.403 271.979 433.403C157.272 433.403 64.2846 439.805 64.2846 447.702C64.2846 455.598 157.272 462 271.979 462Z" fill="#263238"/>
<path d="M147.207 339.985C146.346 335.826 145.201 329.858 144.156 322.647C143.848 320.568 143.553 318.365 143.282 316.089C144.217 315.916 151.649 314.464 154.541 312.397C157.174 310.539 160.004 307.475 160.115 304.03C160.179 303.224 160.07 302.413 159.797 301.652C159.523 300.891 159.091 300.196 158.53 299.615C157.968 299.033 157.289 298.577 156.537 298.278C155.786 297.978 154.98 297.842 154.172 297.878C149.348 298.21 144.894 305.691 143.848 309.887C143.786 310.158 143.356 313.406 143.171 315.08C143.011 313.702 142.851 312.336 142.704 310.908C142.482 308.841 142.31 306.663 142.138 304.547C142.138 303.439 142.027 302.332 141.978 301.212C141.928 300.092 141.978 298.997 141.978 297.865C141.978 296.216 142.101 294.506 142.187 292.808C144.303 292.709 150.493 292.303 153.261 290.901C156.03 289.498 159.414 286.828 160.041 283.518C160.213 282.736 160.22 281.927 160.061 281.142C159.901 280.358 159.579 279.615 159.116 278.963C158.652 278.31 158.057 277.762 157.369 277.353C156.68 276.945 155.914 276.685 155.119 276.59C150.308 276.196 144.759 282.915 143.11 286.902C143.048 287.025 142.79 287.911 142.482 288.956C142.63 287.295 142.765 285.634 142.974 283.961C143.54 279.223 144.279 274.4 144.992 269.564C145.14 268.555 145.275 267.558 145.423 266.549C147.195 266.463 153.913 266.094 156.83 264.63C159.746 263.165 162.982 260.545 163.61 257.247C163.784 256.465 163.792 255.655 163.633 254.87C163.475 254.085 163.153 253.341 162.689 252.688C162.225 252.035 161.629 251.487 160.94 251.079C160.251 250.671 159.483 250.412 158.688 250.319C153.864 249.925 148.327 256.644 146.666 260.631C146.666 260.766 146.297 261.861 145.952 262.993C146.309 260.372 146.617 257.739 146.85 255.13C147.283 250.632 147.411 246.11 147.232 241.595C147.859 241.595 155.734 241.287 158.983 239.663C161.875 238.223 165.135 235.59 165.763 232.28C165.937 231.499 165.945 230.69 165.787 229.905C165.628 229.121 165.306 228.378 164.842 227.726C164.378 227.074 163.782 226.527 163.093 226.12C162.403 225.713 161.636 225.456 160.841 225.365C156.017 224.959 150.48 231.69 148.819 235.664C148.696 235.947 147.589 239.762 147.256 241.127C147.25 241.074 147.25 241.021 147.256 240.967C146.972 236.548 146.296 232.163 145.238 227.863C144.31 224.018 143.159 220.23 141.793 216.518C140.563 213.072 139.221 209.984 138.015 207.264C137.351 205.788 136.711 204.459 136.108 203.228H136.207C136.293 203.228 136.059 197.384 136.01 197.076C135.345 192.818 131.568 184.968 126.793 184.205C125.997 184.099 125.188 184.163 124.418 184.391C123.648 184.619 122.935 185.007 122.326 185.53C121.716 186.052 121.224 186.698 120.88 187.423C120.537 188.149 120.351 188.939 120.333 189.742C120.136 193.151 122.684 196.485 125.132 198.577C127.581 200.669 134.201 202.712 135.825 203.179C136.428 204.483 137.056 205.874 137.732 207.424C138.877 210.168 140.193 213.269 141.289 216.739C141.596 217.662 141.891 218.671 142.199 219.631C141.35 218.105 140.156 216.025 140.009 215.841C137.462 212.359 130.485 207.129 125.907 208.655C125.152 208.927 124.463 209.356 123.885 209.913C123.307 210.47 122.852 211.142 122.552 211.886C122.251 212.631 122.11 213.43 122.14 214.232C122.169 215.035 122.367 215.822 122.72 216.542C124.111 219.655 127.913 221.464 131.063 222.166C134.213 222.867 141.227 221.624 142.728 221.329C143.368 223.482 143.959 225.709 144.476 228.072C145.406 232.317 145.958 236.637 146.124 240.98C146.124 241.238 146.124 241.497 146.124 241.755C145.829 240.918 143.909 236.501 143.75 236.205C141.596 232.514 135.235 226.497 130.509 227.506C129.728 227.695 128.995 228.047 128.358 228.538C127.722 229.029 127.196 229.649 126.815 230.358C126.434 231.066 126.207 231.846 126.148 232.648C126.089 233.45 126.2 234.256 126.473 235.012C127.519 238.248 131.112 240.451 134.152 241.509C137.659 242.739 145.817 241.952 146.112 241.927C146.179 246.285 145.961 250.642 145.46 254.97C145.103 258.182 144.611 261.418 144.082 264.654C143.676 263.584 141.904 259.474 141.731 259.191C139.59 255.499 133.229 249.495 128.504 250.504C127.724 250.693 126.992 251.044 126.357 251.535C125.721 252.025 125.196 252.644 124.815 253.351C124.435 254.058 124.207 254.837 124.147 255.637C124.087 256.438 124.197 257.242 124.468 257.997C125.514 261.246 129.094 263.436 132.146 264.507C135.567 265.737 143.38 264.987 144.045 264.925C143.799 266.389 143.565 267.866 143.319 269.342C142.494 274.141 141.658 278.965 140.981 283.739C140.735 285.4 140.563 287.037 140.39 288.661C139.738 287.074 138.495 284.219 138.36 283.985C136.207 280.294 129.845 274.277 125.12 275.298C124.34 275.487 123.608 275.839 122.973 276.329C122.337 276.82 121.812 277.439 121.432 278.145C121.051 278.852 120.823 279.631 120.763 280.431C120.703 281.232 120.813 282.036 121.084 282.792C122.13 286.04 125.711 288.23 128.762 289.301C131.814 290.372 138.397 289.904 140.255 289.756C139.972 292.488 139.763 295.207 139.677 297.89C139.677 299.046 139.566 300.24 139.677 301.348C139.787 302.455 139.677 303.587 139.75 304.682C139.898 306.959 140.009 309.075 140.193 311.191C140.28 312.262 140.378 313.271 140.476 314.305C140.058 312.606 139.344 309.912 139.246 309.678C137.683 305.654 132.306 298.8 127.47 299.083C126.671 299.155 125.895 299.393 125.194 299.783C124.492 300.173 123.88 300.706 123.398 301.348C122.915 301.989 122.573 302.725 122.393 303.507C122.212 304.289 122.198 305.1 122.351 305.888C122.893 309.247 126.043 311.967 128.947 313.48C132.097 315.141 139.664 315.633 140.587 315.695C140.833 318.23 141.104 320.703 141.387 323.004C142.298 330.313 143.319 336.355 144.094 340.588C144.869 344.821 145.423 347.22 145.423 347.22C145.46 347.452 145.545 347.674 145.672 347.871C145.799 348.069 145.966 348.238 146.162 348.368C146.358 348.497 146.579 348.585 146.81 348.625C147.042 348.665 147.279 348.657 147.507 348.6C147.735 348.544 147.949 348.441 148.135 348.297C148.322 348.154 148.476 347.974 148.589 347.768C148.702 347.562 148.771 347.334 148.791 347.1C148.812 346.866 148.784 346.631 148.708 346.408C148.708 346.408 148.069 344.156 147.207 339.985Z" fill="#92E3A9"/>
<path d="M143.073 220.431C143.073 220.431 151.194 217.97 154.012 215.423C156.473 213.281 158.934 209.873 158.577 206.465C158.538 205.663 158.331 204.879 157.97 204.163C157.608 203.447 157.099 202.816 156.477 202.31C155.855 201.804 155.133 201.434 154.358 201.226C153.584 201.017 152.774 200.974 151.981 201.1C147.232 201.986 143.651 209.935 143.11 214.217C143.06 214.586 142.987 220.455 143.073 220.431Z" fill="#92E3A9"/>
<path d="M147.355 348.598C147.555 348.737 147.724 348.917 147.848 349.126C147.973 349.335 148.051 349.569 148.078 349.811C148.104 350.054 148.078 350.299 148.001 350.53C147.925 350.761 147.799 350.973 147.633 351.152C147.467 351.33 147.265 351.471 147.04 351.564C146.814 351.657 146.572 351.701 146.328 351.692C146.085 351.683 145.846 351.622 145.628 351.513C145.411 351.404 145.219 351.249 145.066 351.059C145.066 351.059 143.27 349.337 140.304 346.248C137.339 343.159 133.13 338.668 128.344 333.082C126.83 331.31 125.255 329.39 123.643 327.422C122.844 327.877 116.26 331.642 112.717 331.987C109.505 332.294 105.334 331.802 103.02 329.292C102.458 328.72 102.022 328.036 101.741 327.285C101.459 326.534 101.339 325.732 101.388 324.932C101.437 324.131 101.653 323.35 102.024 322.638C102.394 321.927 102.909 321.301 103.537 320.802C107.413 317.898 115.682 320.654 119.201 323.152C119.41 323.299 121.49 325.145 122.77 326.326C122.118 325.514 121.539 324.739 120.813 323.865C119.497 322.204 118.229 320.506 116.863 318.673L114.956 315.941C114.292 315.043 113.726 314.009 113.086 313.037C111.671 310.748 110.354 308.361 109.087 305.925C107.622 307.069 102.381 311.081 99.2428 311.88C96.105 312.68 91.8598 312.816 89.2512 310.65C88.6074 310.17 88.0719 309.56 87.6794 308.859C87.2869 308.159 87.0463 307.383 86.9732 306.584C86.9001 305.784 86.9961 304.978 87.255 304.218C87.5139 303.458 87.9299 302.761 88.476 302.172C91.8721 298.727 100.461 300.191 104.312 302.172C104.558 302.295 107.167 303.993 108.582 304.953C107.832 303.476 107.069 302.012 106.355 300.498C104.288 296.143 102.331 291.664 100.363 287.197C99.7596 285.831 99.132 284.478 98.5291 283.112C98.0123 283.53 91.8844 288.44 88.3776 289.326C85.2521 290.125 80.9946 290.261 78.386 288.095C77.7422 287.615 77.2067 287.005 76.8142 286.305C76.4217 285.604 76.1811 284.829 76.108 284.029C76.0349 283.229 76.1309 282.423 76.3898 281.663C76.6487 280.903 77.0647 280.206 77.6108 279.617C80.9946 276.172 89.5834 277.636 93.4472 279.617C93.7425 279.765 97.4955 282.213 98.3691 282.878C97.0156 279.888 95.6497 276.922 94.1732 274.043C92.2017 270.156 89.9822 266.399 87.5285 262.796C87.2824 262.993 80.9208 268.149 77.3155 269.059C74.19 269.847 69.9325 269.995 67.3239 267.829C66.6794 267.349 66.1434 266.739 65.7509 266.038C65.3584 265.337 65.1183 264.561 65.0463 263.761C64.9743 262.96 65.072 262.154 65.333 261.394C65.594 260.634 66.0125 259.938 66.561 259.351C69.9448 255.906 78.5336 257.37 82.3851 259.351C82.6927 259.499 86.7287 262.132 87.4301 262.661C87.2824 262.452 87.1594 262.23 87.0117 262.021C84.4348 258.494 81.5525 255.2 78.3983 252.177C76.6756 250.479 74.9406 248.953 73.2179 247.501C72.1228 248.584 67.0655 253.469 63.9524 254.65C60.8392 255.832 56.7786 256.385 53.887 254.552C53.1949 254.147 52.5959 253.6 52.1292 252.948C51.6625 252.295 51.3385 251.552 51.1783 250.766C51.0181 249.98 51.0253 249.169 51.1994 248.386C51.3735 247.603 51.7107 246.866 52.1889 246.222C55.179 242.419 63.8785 242.924 67.9268 244.425C68.1483 244.511 70.2894 245.582 71.8398 246.382C71.0523 245.742 70.2525 245.065 69.4896 244.474C66.6102 242.21 63.8416 240.315 61.3806 238.666C59.9656 237.744 58.6736 236.931 57.4554 236.205C55.8311 236.71 49.2726 238.666 45.9995 238.26C42.7264 237.854 38.8258 236.488 37.1031 233.535C36.6785 232.855 36.4014 232.093 36.2897 231.299C36.178 230.505 36.2341 229.696 36.4544 228.925C36.6747 228.153 37.0544 227.437 37.5688 226.822C38.0833 226.206 38.7211 225.706 39.441 225.353C43.8462 223.359 51.3276 227.814 54.2069 231.013C54.453 231.296 57.8984 236.058 57.7999 236.082H57.7015C58.932 236.771 60.1625 237.534 61.516 238.396C63.977 239.995 66.844 241.829 69.7849 244.031C72.9678 246.376 76.016 248.899 78.9151 251.587C82.1637 254.604 85.1445 257.898 87.8238 261.43C87.8451 261.48 87.8742 261.526 87.91 261.566C87.4424 260.237 86.2611 256.447 86.1996 256.152C85.3875 251.919 86.3103 243.244 90.5432 240.918C91.2576 240.552 92.0409 240.341 92.8423 240.297C93.6437 240.254 94.4453 240.38 95.195 240.666C95.9447 240.953 96.6256 241.394 97.1937 241.961C97.7617 242.528 98.2041 243.208 98.4922 243.958C99.8211 247.108 98.4922 251.107 96.9417 253.9C95.1206 257.05 88.7098 261.64 88.2053 261.996C90.8289 265.659 93.2088 269.49 95.3298 273.465C96.5603 275.778 97.7908 278.14 98.9228 280.528C98.5537 279.359 98.2338 278.313 98.2092 278.165C97.397 273.932 98.3076 265.257 102.553 262.932C103.268 262.566 104.052 262.355 104.854 262.313C105.656 262.27 106.458 262.397 107.208 262.685C107.958 262.973 108.638 263.415 109.206 263.983C109.773 264.552 110.215 265.233 110.502 265.983C111.831 269.121 110.502 273.12 108.951 275.913C107.401 278.707 101.925 282.767 100.486 283.813C100.916 284.736 101.359 285.646 101.79 286.569C103.869 290.987 105.912 295.417 108.053 299.699C108.804 301.2 109.603 302.652 110.391 304.116C110.071 303.082 109.813 302.209 109.776 302.061C108.964 297.828 109.886 289.166 114.119 286.84C114.834 286.474 115.617 286.263 116.418 286.219C117.22 286.176 118.021 286.302 118.771 286.588C119.521 286.875 120.202 287.316 120.77 287.883C121.338 288.45 121.78 289.13 122.068 289.879C123.397 293.017 122.13 297.028 120.518 299.822C118.906 302.615 114.021 306.269 112.311 307.525C113.172 308.989 114.021 310.465 114.919 311.856C115.559 312.791 116.15 313.739 116.79 314.637L118.758 317.332C120.075 318.993 121.416 320.728 122.745 322.315C123.656 323.435 124.542 324.481 125.44 325.539C124.665 324.05 123.225 321.097 123.139 320.838C121.687 316.766 121.281 308.066 125.12 305.125C125.77 304.655 126.513 304.327 127.298 304.162C128.084 303.998 128.895 304 129.679 304.17C130.464 304.339 131.204 304.672 131.851 305.146C132.499 305.62 133.04 306.225 133.438 306.922C135.222 309.826 134.57 313.985 133.438 316.987C132.208 320.297 126.756 325.6 126.055 326.265C127.544 328.012 128.996 329.686 130.411 331.261C135.259 336.687 139.504 341.031 142.519 344.033C145.534 347.036 147.355 348.598 147.355 348.598ZM73.1195 246.554C73.1195 246.554 78.5213 239.995 79.4811 236.341C80.2932 233.228 80.4655 228.958 78.3614 226.349C77.8861 225.701 77.2796 225.16 76.5814 224.762C75.8832 224.364 75.109 224.117 74.3091 224.039C73.5093 223.96 72.7017 224.05 71.9392 224.304C71.1766 224.558 70.4761 224.97 69.8833 225.513C66.4133 228.872 67.8161 237.473 69.7234 241.349C69.8341 241.681 73.058 246.615 73.1195 246.554Z" fill="#92E3A9"/>
<path opacity="0.1" d="M147.355 348.598C147.555 348.737 147.724 348.917 147.848 349.126C147.973 349.335 148.051 349.569 148.078 349.811C148.104 350.054 148.078 350.299 148.001 350.53C147.925 350.761 147.799 350.973 147.633 351.152C147.467 351.33 147.265 351.471 147.04 351.564C146.814 351.657 146.572 351.701 146.328 351.692C146.085 351.683 145.846 351.622 145.628 351.513C145.411 351.404 145.219 351.249 145.066 351.059C145.066 351.059 143.27 349.337 140.304 346.248C137.339 343.159 133.13 338.668 128.344 333.082C126.83 331.31 125.255 329.39 123.643 327.422C122.844 327.877 116.26 331.642 112.717 331.987C109.505 332.294 105.334 331.802 103.02 329.292C102.458 328.72 102.022 328.036 101.741 327.285C101.459 326.534 101.339 325.732 101.388 324.932C101.437 324.131 101.653 323.35 102.024 322.638C102.394 321.927 102.909 321.301 103.537 320.802C107.413 317.898 115.682 320.654 119.201 323.152C119.41 323.299 121.49 325.145 122.77 326.326C122.118 325.514 121.539 324.739 120.813 323.865C119.497 322.204 118.229 320.506 116.863 318.673L114.956 315.941C114.292 315.043 113.726 314.009 113.086 313.037C111.671 310.748 110.354 308.361 109.087 305.925C107.622 307.069 102.381 311.081 99.2428 311.88C96.105 312.68 91.8598 312.816 89.2512 310.65C88.6074 310.17 88.0719 309.56 87.6794 308.859C87.2869 308.159 87.0463 307.383 86.9732 306.584C86.9001 305.784 86.9961 304.978 87.255 304.218C87.5139 303.458 87.9299 302.761 88.476 302.172C91.8721 298.727 100.461 300.191 104.312 302.172C104.558 302.295 107.167 303.993 108.582 304.953C107.832 303.476 107.069 302.012 106.355 300.498C104.288 296.143 102.331 291.664 100.363 287.197C99.7596 285.831 99.132 284.478 98.5291 283.112C98.0123 283.53 91.8844 288.44 88.3776 289.326C85.2521 290.125 80.9946 290.261 78.386 288.095C77.7422 287.615 77.2067 287.005 76.8142 286.305C76.4217 285.604 76.1811 284.829 76.108 284.029C76.0349 283.229 76.1309 282.423 76.3898 281.663C76.6487 280.903 77.0647 280.206 77.6108 279.617C80.9946 276.172 89.5834 277.636 93.4472 279.617C93.7425 279.765 97.4955 282.213 98.3691 282.878C97.0156 279.888 95.6497 276.922 94.1732 274.043C92.2017 270.156 89.9822 266.399 87.5285 262.796C87.2824 262.993 80.9208 268.149 77.3155 269.059C74.19 269.847 69.9325 269.995 67.3239 267.829C66.6794 267.349 66.1434 266.739 65.7509 266.038C65.3584 265.337 65.1183 264.561 65.0463 263.761C64.9743 262.96 65.072 262.154 65.333 261.394C65.594 260.634 66.0125 259.938 66.561 259.351C69.9448 255.906 78.5336 257.37 82.3851 259.351C82.6927 259.499 86.7287 262.132 87.4301 262.661C87.2824 262.452 87.1594 262.23 87.0117 262.021C84.4348 258.494 81.5525 255.2 78.3983 252.177C76.6756 250.479 74.9406 248.953 73.2179 247.501C72.1228 248.584 67.0655 253.469 63.9524 254.65C60.8392 255.832 56.7786 256.385 53.887 254.552C53.1949 254.147 52.5959 253.6 52.1292 252.948C51.6625 252.295 51.3385 251.552 51.1783 250.766C51.0181 249.98 51.0253 249.169 51.1994 248.386C51.3735 247.603 51.7107 246.866 52.1889 246.222C55.179 242.419 63.8785 242.924 67.9268 244.425C68.1483 244.511 70.2894 245.582 71.8398 246.382C71.0523 245.742 70.2525 245.065 69.4896 244.474C66.6102 242.21 63.8416 240.315 61.3806 238.666C59.9656 237.744 58.6736 236.931 57.4554 236.205C55.8311 236.71 49.2726 238.666 45.9995 238.26C42.7264 237.854 38.8258 236.488 37.1031 233.535C36.6785 232.855 36.4014 232.093 36.2897 231.299C36.178 230.505 36.2341 229.696 36.4544 228.925C36.6747 228.153 37.0544 227.437 37.5688 226.822C38.0833 226.206 38.7211 225.706 39.441 225.353C43.8462 223.359 51.3276 227.814 54.2069 231.013C54.453 231.296 57.8984 236.058 57.7999 236.082H57.7015C58.932 236.771 60.1625 237.534 61.516 238.396C63.977 239.995 66.844 241.829 69.7849 244.031C72.9678 246.376 76.016 248.899 78.9151 251.587C82.1637 254.604 85.1445 257.898 87.8238 261.43C87.8451 261.48 87.8742 261.526 87.91 261.566C87.4424 260.237 86.2611 256.447 86.1996 256.152C85.3875 251.919 86.3103 243.244 90.5432 240.918C91.2576 240.552 92.0409 240.341 92.8423 240.297C93.6437 240.254 94.4453 240.38 95.195 240.666C95.9447 240.953 96.6256 241.394 97.1937 241.961C97.7617 242.528 98.2041 243.208 98.4922 243.958C99.8211 247.108 98.4922 251.107 96.9417 253.9C95.1206 257.05 88.7098 261.64 88.2053 261.996C90.8289 265.659 93.2088 269.49 95.3298 273.465C96.5603 275.778 97.7908 278.14 98.9228 280.528C98.5537 279.359 98.2338 278.313 98.2092 278.165C97.397 273.932 98.3076 265.257 102.553 262.932C103.268 262.566 104.052 262.355 104.854 262.313C105.656 262.27 106.458 262.397 107.208 262.685C107.958 262.973 108.638 263.415 109.206 263.983C109.773 264.552 110.215 265.233 110.502 265.983C111.831 269.121 110.502 273.12 108.951 275.913C107.401 278.707 101.925 282.767 100.486 283.813C100.916 284.736 101.359 285.646 101.79 286.569C103.869 290.987 105.912 295.417 108.053 299.699C108.804 301.2 109.603 302.652 110.391 304.116C110.071 303.082 109.813 302.209 109.776 302.061C108.964 297.828 109.886 289.166 114.119 286.84C114.834 286.474 115.617 286.263 116.418 286.219C117.22 286.176 118.021 286.302 118.771 286.588C119.521 286.875 120.202 287.316 120.77 287.883C121.338 288.45 121.78 289.13 122.068 289.879C123.397 293.017 122.13 297.028 120.518 299.822C118.906 302.615 114.021 306.269 112.311 307.525C113.172 308.989 114.021 310.465 114.919 311.856C115.559 312.791 116.15 313.739 116.79 314.637L118.758 317.332C120.075 318.993 121.416 320.728 122.745 322.315C123.656 323.435 124.542 324.481 125.44 325.539C124.665 324.05 123.225 321.097 123.139 320.838C121.687 316.766 121.281 308.066 125.12 305.125C125.77 304.655 126.513 304.327 127.298 304.162C128.084 303.998 128.895 304 129.679 304.17C130.464 304.339 131.204 304.672 131.851 305.146C132.499 305.62 133.04 306.225 133.438 306.922C135.222 309.826 134.57 313.985 133.438 316.987C132.208 320.297 126.756 325.6 126.055 326.265C127.544 328.012 128.996 329.686 130.411 331.261C135.259 336.687 139.504 341.031 142.519 344.033C145.534 347.036 147.355 348.598 147.355 348.598ZM73.1195 246.554C73.1195 246.554 78.5213 239.995 79.4811 236.341C80.2932 233.228 80.4655 228.958 78.3614 226.349C77.8861 225.701 77.2796 225.16 76.5814 224.762C75.8832 224.364 75.109 224.117 74.3091 224.039C73.5093 223.96 72.7017 224.05 71.9392 224.304C71.1766 224.558 70.4761 224.97 69.8833 225.513C66.4133 228.872 67.8161 237.473 69.7234 241.349C69.8341 241.681 73.058 246.615 73.1195 246.554Z" fill="black"/>
<path d="M115.817 429.749C114.771 425.627 113.356 419.72 112.003 412.522C111.609 410.467 111.215 408.265 110.846 406.013C111.757 405.791 119.127 404.019 121.921 401.841C124.468 399.86 127.163 396.636 127.126 393.228C127.144 392.43 126.994 391.638 126.687 390.901C126.379 390.165 125.921 389.501 125.341 388.952C124.762 388.404 124.073 387.983 123.321 387.717C122.569 387.451 121.769 387.346 120.973 387.408C116.162 387.949 112.04 395.627 111.129 399.86C111.129 400.131 110.785 403.404 110.686 405.078C110.452 403.712 110.231 402.358 110.022 400.931C109.714 398.888 109.443 396.71 109.173 394.606L108.877 391.284C108.742 390.152 108.767 389.057 108.705 387.937C108.705 386.288 108.705 384.578 108.705 382.88C110.809 382.683 116.974 382.006 119.706 380.48C122.437 378.954 125.674 376.137 126.141 372.765C126.281 371.974 126.253 371.163 126.058 370.384C125.863 369.605 125.506 368.875 125.011 368.244C124.515 367.612 123.891 367.092 123.181 366.717C122.47 366.343 121.688 366.123 120.887 366.071C116.064 365.874 110.822 372.839 109.333 376.899C109.333 377.022 109.062 377.908 108.816 378.967C108.816 377.306 108.951 375.657 109.074 373.971C109.443 369.197 109.96 364.361 110.465 359.5C110.563 358.479 110.649 357.47 110.76 356.461C112.532 356.301 119.214 355.624 122.068 354C124.923 352.376 128.036 349.656 128.516 346.273C128.654 345.482 128.624 344.671 128.429 343.893C128.233 343.115 127.876 342.386 127.381 341.755C126.885 341.124 126.262 340.604 125.553 340.229C124.843 339.854 124.063 339.632 123.262 339.579C118.438 339.394 113.184 346.359 111.708 350.407C111.708 350.555 111.388 351.638 111.105 352.806C111.338 350.161 111.535 347.528 111.658 344.907C111.889 340.395 111.815 335.873 111.437 331.371C112.064 331.371 119.915 330.682 123.102 328.91C125.907 327.348 129.07 324.567 129.537 321.183C129.678 320.392 129.649 319.581 129.454 318.802C129.26 318.022 128.903 317.293 128.407 316.661C127.911 316.03 127.287 315.51 126.577 315.135C125.866 314.761 125.085 314.541 124.283 314.489C119.46 314.305 114.218 321.269 112.729 325.317C112.63 325.6 111.695 329.452 111.412 330.842C111.412 330.842 111.412 330.732 111.412 330.682C110.941 326.278 110.076 321.926 108.828 317.676C107.727 313.879 106.408 310.149 104.878 306.503C103.5 303.107 102.024 300.08 100.695 297.41C99.9687 295.97 99.2797 294.678 98.6152 293.46H98.7136C98.7998 293.46 98.3199 287.64 98.246 287.308C97.397 283.075 93.3241 275.396 88.4021 274.843C87.6065 274.781 86.8068 274.886 86.0544 275.152C85.302 275.418 84.6138 275.839 84.0341 276.387C83.4544 276.936 82.996 277.6 82.6887 278.336C82.3813 279.072 82.2318 279.865 82.2497 280.663C82.2497 284.071 84.8952 287.295 87.4424 289.276C89.9895 291.257 96.671 292.968 98.3199 293.411C98.9843 294.641 99.6734 296.044 100.412 297.558C101.642 300.252 103.07 303.292 104.374 306.712C104.731 307.623 105.063 308.607 105.407 309.567C104.497 308.078 103.205 306.048 103.057 305.876C100.362 302.516 93.2134 297.607 88.6482 299.329C87.9073 299.637 87.2394 300.097 86.6877 300.68C86.1361 301.262 85.7131 301.954 85.4462 302.71C85.1793 303.467 85.0745 304.271 85.1386 305.071C85.2027 305.871 85.4342 306.648 85.8181 307.352C87.3439 310.404 91.22 312.016 94.4315 312.606C97.6431 313.197 104.558 311.61 106.047 311.241C106.786 313.369 107.487 315.572 108.09 317.91C109.237 322.131 109.999 326.447 110.366 330.805C110.366 331.051 110.366 331.322 110.366 331.568C110.046 330.756 107.905 326.413 107.758 326.129C105.444 322.438 98.8244 316.815 94.1485 318.033C93.3771 318.256 92.6614 318.639 92.0482 319.157C91.4349 319.676 90.9378 320.317 90.5895 321.041C90.2411 321.764 90.0492 322.553 90.0264 323.356C90.0036 324.158 90.1503 324.957 90.4571 325.699C91.6875 328.898 95.379 330.941 98.406 331.851C101.962 332.922 110.071 331.777 110.379 331.741C110.626 336.09 110.597 340.45 110.293 344.796C110.071 348.02 109.727 351.268 109.345 354.529C108.902 353.483 106.884 349.447 106.761 349.177C104.448 345.485 97.8277 339.862 93.1518 341.08C92.3804 341.303 91.6647 341.686 91.0515 342.204C90.4382 342.723 89.9411 343.364 89.5928 344.088C89.2444 344.811 89.0525 345.6 89.0297 346.403C89.0069 347.205 89.1536 348.004 89.4604 348.746C90.6908 351.945 94.3823 353.975 97.4093 354.898C100.879 355.932 108.656 354.898 109.32 354.788C109.136 356.264 108.976 357.753 108.791 359.23C108.188 364.065 107.561 368.926 107.081 373.725C106.921 375.386 106.823 377.035 106.712 378.647C105.986 377.096 104.62 374.291 104.472 374.069C102.159 370.378 95.5513 364.755 90.937 365.973C90.1667 366.197 89.4522 366.581 88.84 367.1C88.2278 367.619 87.7315 368.26 87.3834 368.983C87.0353 369.706 86.8431 370.494 86.8193 371.296C86.7956 372.098 86.9408 372.896 87.2455 373.639C88.476 376.838 92.1674 378.868 95.1944 379.791C98.2214 380.714 104.854 379.976 106.7 379.73C106.54 382.474 106.441 385.205 106.478 387.888C106.478 389.057 106.478 390.238 106.589 391.345L106.81 394.68C107.056 396.944 107.266 399.048 107.536 401.165C107.672 402.223 107.819 403.22 107.967 404.253C107.462 402.58 106.638 399.922 106.54 399.688C104.792 395.738 99.1566 389.131 94.3085 389.623C93.5134 389.728 92.7494 389.999 92.0659 390.419C91.3825 390.838 90.7949 391.397 90.3412 392.058C89.8875 392.72 89.578 393.469 89.4326 394.258C89.2872 395.046 89.3092 395.857 89.4973 396.636C90.1864 399.983 93.5087 402.555 96.4249 403.933C99.6365 405.459 107.216 405.619 108.151 405.631C108.508 408.166 108.877 410.615 109.271 412.916C110.502 420.163 111.732 426.168 112.741 430.352C113.75 434.536 114.365 436.923 114.365 436.923C114.516 437.324 114.814 437.654 115.198 437.845C115.582 438.037 116.025 438.075 116.436 437.954C116.848 437.832 117.198 437.559 117.416 437.19C117.635 436.821 117.706 436.382 117.614 435.963C117.614 435.963 116.863 433.883 115.817 429.749Z" fill="#92E3A9"/>
<path d="M106.404 310.49C106.404 310.49 114.415 307.66 117.109 305.014C119.41 302.75 121.724 299.243 121.293 295.859C121.218 295.06 120.975 294.285 120.58 293.585C120.186 292.886 119.648 292.277 119.003 291.799C118.358 291.32 117.619 290.983 116.835 290.81C116.051 290.636 115.239 290.629 114.452 290.79C109.751 291.885 106.527 299.982 106.17 304.325C106.133 304.682 106.318 310.527 106.404 310.49Z" fill="#92E3A9"/>
<path d="M111.203 431.484C108.065 428.629 103.636 424.47 98.5414 419.253C97.0771 417.752 95.539 416.14 93.9885 414.466C94.6284 413.777 99.7841 408.228 100.929 404.868C101.962 401.817 102.43 397.645 100.51 394.815C100.083 394.137 99.5168 393.556 98.8498 393.111C98.1827 392.666 97.4294 392.366 96.6389 392.232C95.8483 392.097 95.0383 392.13 94.2615 392.329C93.4847 392.529 92.7586 392.889 92.1305 393.388C88.4391 396.489 89.2143 405.176 90.8385 409.163C90.9369 409.421 92.512 412.313 93.2995 413.765C92.352 412.756 91.4168 411.747 90.4571 410.664C89.0666 409.138 87.6515 407.465 86.2611 405.865L84.1693 403.257C83.4433 402.383 82.8649 401.46 82.1882 400.562C81.2284 399.221 80.3055 397.781 79.3827 396.341C81.0315 395.025 85.8058 391.05 87.2455 388.281C88.6852 385.513 89.8295 381.366 88.3529 378.29C88.0333 377.554 87.562 376.893 86.9698 376.351C86.3777 375.809 85.6779 375.398 84.9162 375.145C84.1545 374.892 83.348 374.803 82.5493 374.882C81.7506 374.962 80.9777 375.209 80.2809 375.607C76.1465 378.068 75.6174 386.805 76.5894 391.001C76.5894 391.149 76.934 392.01 77.3031 393.031C76.4418 391.604 75.5805 390.189 74.756 388.712C72.4304 384.529 70.1909 380.209 67.9268 375.878C67.4592 374.98 66.9793 374.082 66.4995 373.183C67.8899 372.076 73.0949 367.818 74.6084 364.915C76.1219 362.011 77.1801 357.999 75.7158 354.923C75.3962 354.187 74.9249 353.526 74.3327 352.984C73.7405 352.442 73.0408 352.032 72.2791 351.778C71.5174 351.525 70.7109 351.436 69.9122 351.515C69.1135 351.595 68.3405 351.842 67.6438 352.24C63.5094 354.701 62.9803 363.438 63.9523 367.634C63.9523 367.794 64.3584 368.864 64.7768 369.972C63.5463 367.634 62.2174 365.333 60.8761 363.069C58.5763 359.193 56.0237 355.473 53.2348 351.933C53.7393 351.539 59.9409 346.679 61.6144 343.455C63.1033 340.6 64.1984 336.539 62.7219 333.463C62.4034 332.726 61.933 332.064 61.3413 331.521C60.7497 330.978 60.0501 330.566 59.2883 330.311C58.5265 330.057 57.7196 329.966 56.9203 330.045C56.121 330.124 55.3474 330.37 54.6499 330.768C50.5154 333.229 49.9863 341.978 50.9584 346.174C51.0322 346.469 52.3857 350.198 52.9026 351.514L52.8164 351.379C49.9837 347.975 46.8587 344.825 43.477 341.966C40.5062 339.408 37.3921 337.021 34.1499 334.817C31.1229 332.75 28.219 331.039 25.6472 329.55C24.2445 328.75 22.9402 328.049 21.7343 327.409H21.8204C21.9066 327.409 18.2766 322.77 18.0059 322.487C14.9666 319.423 7.30066 315.301 2.99395 317.491C2.28824 317.873 1.67087 318.399 1.18208 319.035C0.693285 319.671 0.344046 320.403 0.157128 321.184C-0.0297894 321.964 -0.0501889 322.775 0.0972573 323.563C0.244703 324.352 0.556685 325.1 1.01287 325.76C2.8586 328.64 6.88229 329.846 10.1062 330.092C13.3301 330.338 19.8639 328.098 21.4513 327.532C22.6818 328.221 24.0353 328.972 25.4873 329.846C28.0221 331.384 30.8768 333.156 33.8423 335.284C34.6421 335.85 35.4665 336.515 36.3033 337.093C34.7282 336.355 32.5257 335.383 32.3042 335.309C28.1944 333.992 19.4825 333.857 16.6647 337.77C16.2177 338.436 15.9155 339.189 15.7776 339.979C15.6396 340.769 15.669 341.579 15.8638 342.358C16.0586 343.136 16.4146 343.864 16.9086 344.496C17.4026 345.128 18.0238 345.65 18.7319 346.027C21.6974 347.712 25.8195 346.937 28.785 345.67C31.7505 344.402 36.6847 339.247 37.7306 338.127C39.5148 339.493 41.3114 340.945 43.1079 342.557C46.3881 345.447 49.4026 348.627 52.115 352.056C52.275 352.253 52.4104 352.474 52.5703 352.683C51.8443 352.179 47.6484 349.73 47.3777 349.595C43.4401 347.835 34.7898 346.74 31.5659 350.346C31.0473 350.957 30.6631 351.672 30.4383 352.441C30.2135 353.211 30.1531 354.02 30.261 354.815C30.3689 355.61 30.6428 356.373 31.0647 357.055C31.4866 357.737 32.0473 358.323 32.7102 358.774C35.4665 360.78 39.6625 360.46 42.7387 359.525C46.2948 358.454 52.435 353.028 52.6688 352.831C55.283 356.318 57.667 359.973 59.8056 363.77C61.4052 366.576 62.9064 369.48 64.383 372.384C63.4355 371.756 59.5718 369.48 59.2765 369.344C55.3389 367.585 46.6886 366.502 43.4524 370.095C42.9326 370.707 42.5476 371.421 42.3227 372.192C42.0978 372.963 42.0379 373.772 42.1471 374.568C42.2562 375.363 42.5319 376.127 42.9562 376.808C43.3804 377.49 43.9436 378.075 44.6091 378.524C47.3654 380.542 51.549 380.209 54.6375 379.287C58.1075 378.228 64.0139 373.06 64.4815 372.63C65.1582 373.959 65.835 375.288 66.4995 376.616C68.6651 380.997 70.8062 385.378 73.0703 389.647C73.8455 391.124 74.6699 392.564 75.5312 393.991C74.0669 393.093 71.3845 391.53 71.1384 391.407C67.2008 389.647 58.5505 388.564 55.3266 392.158C54.808 392.769 54.4239 393.483 54.1991 394.253C53.9743 395.023 53.9139 395.832 54.0218 396.627C54.1297 397.422 54.4035 398.185 54.8254 398.867C55.2474 399.549 55.808 400.135 56.471 400.586C59.2273 402.604 63.4109 402.272 66.4995 401.349C69.588 400.426 74.6576 396.169 76.0726 394.951C77.4508 397.326 78.8659 399.663 80.3794 401.878C81.0561 402.826 81.6837 403.835 82.3727 404.709L84.403 407.354C85.855 409.114 87.1963 410.763 88.5867 412.362L90.6416 414.712C89.3004 413.58 87.147 411.833 86.9502 411.698C83.2587 409.36 74.9406 406.973 71.1999 410.037C70.5928 410.563 70.1034 411.211 69.7634 411.939C69.4234 412.667 69.2404 413.458 69.2265 414.261C69.2126 415.064 69.368 415.861 69.6825 416.601C69.9971 417.34 70.4638 418.005 71.0523 418.552C73.5132 420.951 77.6723 421.271 80.8962 420.816C84.4154 420.311 90.8262 416.263 91.6137 415.758C93.2995 417.666 94.9729 419.45 96.5357 421.209C101.556 426.587 105.949 430.881 109.062 433.834C112.175 436.787 113.984 438.436 113.984 438.436C114.332 438.691 114.763 438.804 115.191 438.752C115.619 438.701 116.012 438.488 116.289 438.158C116.566 437.828 116.707 437.404 116.683 436.974C116.66 436.543 116.473 436.138 116.162 435.84C116.162 435.84 114.353 434.351 111.203 431.484Z" fill="#92E3A9"/>
<path d="M37.5707 337.216C37.5707 337.216 42.6772 330.436 43.477 326.732C44.1538 323.582 44.1415 319.349 41.9143 316.79C41.4093 316.166 40.7789 315.655 40.064 315.291C39.3491 314.926 38.5656 314.715 37.7642 314.672C36.9627 314.629 36.1612 314.755 35.4114 315.041C34.6616 315.328 33.9804 315.768 33.4116 316.335C30.0893 319.842 31.8735 328.381 33.9407 332.159C34.1499 332.491 37.5091 337.278 37.5707 337.216Z" fill="#92E3A9"/>
<g opacity="0.1">
<path d="M115.817 429.749C114.771 425.627 113.356 419.72 112.003 412.522C111.609 410.467 111.215 408.265 110.846 406.013C111.757 405.791 119.127 404.019 121.921 401.841C124.468 399.86 127.163 396.636 127.126 393.228C127.144 392.43 126.994 391.638 126.687 390.901C126.379 390.165 125.921 389.501 125.341 388.952C124.762 388.404 124.073 387.983 123.321 387.717C122.569 387.451 121.769 387.346 120.973 387.408C116.162 387.949 112.04 395.627 111.129 399.86C111.129 400.131 110.785 403.404 110.686 405.078C110.452 403.712 110.231 402.358 110.022 400.931C109.714 398.888 109.443 396.71 109.173 394.606L108.877 391.284C108.742 390.152 108.767 389.057 108.705 387.937C108.705 386.288 108.705 384.578 108.705 382.88C110.809 382.683 116.974 382.006 119.706 380.48C122.437 378.954 125.674 376.137 126.141 372.765C126.281 371.974 126.253 371.163 126.058 370.384C125.863 369.605 125.506 368.875 125.011 368.244C124.515 367.612 123.891 367.092 123.181 366.717C122.47 366.343 121.688 366.123 120.887 366.071C116.064 365.874 110.822 372.839 109.333 376.899C109.333 377.022 109.062 377.908 108.816 378.967C108.816 377.306 108.951 375.657 109.074 373.971C109.443 369.197 109.96 364.361 110.465 359.5C110.563 358.479 110.649 357.47 110.76 356.461C112.532 356.301 119.214 355.624 122.068 354C124.923 352.376 128.036 349.656 128.516 346.273C128.654 345.482 128.624 344.671 128.429 343.893C128.233 343.115 127.876 342.386 127.381 341.755C126.885 341.124 126.262 340.604 125.553 340.229C124.843 339.854 124.063 339.632 123.262 339.579C118.438 339.394 113.184 346.359 111.708 350.407C111.708 350.555 111.388 351.638 111.105 352.806C111.338 350.161 111.535 347.528 111.658 344.907C111.889 340.395 111.815 335.873 111.437 331.371C112.064 331.371 119.915 330.682 123.102 328.91C125.907 327.348 129.07 324.567 129.537 321.183C129.678 320.392 129.649 319.581 129.454 318.802C129.26 318.022 128.903 317.293 128.407 316.661C127.911 316.03 127.287 315.51 126.577 315.135C125.866 314.761 125.085 314.541 124.283 314.489C119.46 314.305 114.218 321.269 112.729 325.317C112.63 325.6 111.695 329.452 111.412 330.842C111.412 330.842 111.412 330.732 111.412 330.682C110.941 326.278 110.076 321.926 108.828 317.676C107.727 313.879 106.408 310.149 104.878 306.503C103.5 303.107 102.024 300.08 100.695 297.41C99.9687 295.97 99.2797 294.678 98.6152 293.46H98.7136C98.7998 293.46 98.3199 287.64 98.246 287.308C97.397 283.075 93.3241 275.396 88.4021 274.843C87.6065 274.781 86.8068 274.886 86.0544 275.152C85.302 275.418 84.6138 275.839 84.0341 276.387C83.4544 276.936 82.996 277.6 82.6887 278.336C82.3813 279.072 82.2318 279.865 82.2497 280.663C82.2497 284.071 84.8952 287.295 87.4424 289.276C89.9895 291.257 96.671 292.968 98.3199 293.411C98.9843 294.641 99.6734 296.044 100.412 297.558C101.642 300.252 103.07 303.292 104.374 306.712C104.731 307.623 105.063 308.607 105.407 309.567C104.497 308.078 103.205 306.048 103.057 305.876C100.362 302.516 93.2134 297.607 88.6482 299.329C87.9073 299.637 87.2394 300.097 86.6877 300.68C86.1361 301.262 85.7131 301.954 85.4462 302.71C85.1793 303.467 85.0745 304.271 85.1386 305.071C85.2027 305.871 85.4342 306.648 85.8181 307.352C87.3439 310.404 91.22 312.016 94.4315 312.606C97.6431 313.197 104.558 311.61 106.047 311.241C106.786 313.369 107.487 315.572 108.09 317.91C109.237 322.131 109.999 326.447 110.366 330.805C110.366 331.051 110.366 331.322 110.366 331.568C110.046 330.756 107.905 326.413 107.758 326.129C105.444 322.438 98.8244 316.815 94.1485 318.033C93.3771 318.256 92.6614 318.639 92.0482 319.157C91.4349 319.676 90.9378 320.317 90.5895 321.041C90.2411 321.764 90.0492 322.553 90.0264 323.356C90.0036 324.158 90.1503 324.957 90.4571 325.699C91.6875 328.898 95.379 330.941 98.406 331.851C101.962 332.922 110.071 331.777 110.379 331.741C110.626 336.09 110.597 340.45 110.293 344.796C110.071 348.02 109.727 351.268 109.345 354.529C108.902 353.483 106.884 349.447 106.761 349.177C104.448 345.485 97.8277 339.862 93.1518 341.08C92.3804 341.303 91.6647 341.686 91.0515 342.204C90.4382 342.723 89.9411 343.364 89.5928 344.088C89.2444 344.811 89.0525 345.6 89.0297 346.403C89.0069 347.205 89.1536 348.004 89.4604 348.746C90.6908 351.945 94.3823 353.975 97.4093 354.898C100.879 355.932 108.656 354.898 109.32 354.788C109.136 356.264 108.976 357.753 108.791 359.23C108.188 364.065 107.561 368.926 107.081 373.725C106.921 375.386 106.823 377.035 106.712 378.647C105.986 377.096 104.62 374.291 104.472 374.069C102.159 370.378 95.5513 364.755 90.937 365.973C90.1667 366.197 89.4522 366.581 88.84 367.1C88.2278 367.619 87.7315 368.26 87.3834 368.983C87.0353 369.706 86.8431 370.494 86.8193 371.296C86.7956 372.098 86.9408 372.896 87.2455 373.639C88.476 376.838 92.1674 378.868 95.1944 379.791C98.2214 380.714 104.854 379.976 106.7 379.73C106.54 382.474 106.441 385.205 106.478 387.888C106.478 389.057 106.478 390.238 106.589 391.345L106.81 394.68C107.056 396.944 107.266 399.048 107.536 401.165C107.672 402.223 107.819 403.22 107.967 404.253C107.462 402.58 106.638 399.922 106.54 399.688C104.792 395.738 99.1566 389.131 94.3085 389.623C93.5134 389.728 92.7494 389.999 92.0659 390.419C91.3825 390.838 90.7949 391.397 90.3412 392.058C89.8875 392.72 89.578 393.469 89.4326 394.258C89.2872 395.046 89.3092 395.857 89.4973 396.636C90.1864 399.983 93.5087 402.555 96.4249 403.933C99.6365 405.459 107.216 405.619 108.151 405.631C108.508 408.166 108.877 410.615 109.271 412.916C110.502 420.163 111.732 426.168 112.741 430.352C113.75 434.536 114.365 436.923 114.365 436.923C114.516 437.324 114.814 437.654 115.198 437.845C115.582 438.037 116.025 438.075 116.436 437.954C116.848 437.832 117.198 437.559 117.416 437.19C117.635 436.821 117.706 436.382 117.614 435.963C117.614 435.963 116.863 433.883 115.817 429.749Z" fill="black"/>
<path d="M106.404 310.49C106.404 310.49 114.415 307.66 117.109 305.014C119.41 302.75 121.724 299.243 121.293 295.859C121.218 295.06 120.975 294.285 120.58 293.585C120.186 292.886 119.648 292.277 119.003 291.799C118.358 291.32 117.619 290.983 116.835 290.81C116.051 290.636 115.239 290.629 114.452 290.79C109.751 291.885 106.527 299.982 106.17 304.325C106.133 304.682 106.318 310.527 106.404 310.49Z" fill="black"/>
<path d="M111.203 431.484C108.065 428.629 103.636 424.47 98.5414 419.253C97.0771 417.752 95.539 416.14 93.9885 414.466C94.6284 413.777 99.7841 408.228 100.929 404.868C101.962 401.817 102.43 397.645 100.51 394.815C100.083 394.137 99.5168 393.556 98.8498 393.111C98.1827 392.666 97.4294 392.366 96.6389 392.232C95.8483 392.097 95.0383 392.13 94.2615 392.329C93.4847 392.529 92.7586 392.889 92.1305 393.388C88.4391 396.489 89.2143 405.176 90.8385 409.163C90.9369 409.421 92.512 412.313 93.2995 413.765C92.352 412.756 91.4168 411.747 90.4571 410.664C89.0666 409.138 87.6515 407.465 86.2611 405.865L84.1693 403.257C83.4433 402.383 82.8649 401.46 82.1882 400.562C81.2284 399.221 80.3055 397.781 79.3827 396.341C81.0315 395.025 85.8058 391.05 87.2455 388.281C88.6852 385.513 89.8295 381.366 88.3529 378.29C88.0333 377.554 87.562 376.893 86.9698 376.351C86.3777 375.809 85.6779 375.398 84.9162 375.145C84.1545 374.892 83.348 374.803 82.5493 374.882C81.7506 374.962 80.9777 375.209 80.2809 375.607C76.1465 378.068 75.6174 386.805 76.5894 391.001C76.5894 391.149 76.934 392.01 77.3031 393.031C76.4418 391.604 75.5805 390.189 74.756 388.712C72.4304 384.529 70.1909 380.209 67.9268 375.878C67.4592 374.98 66.9793 374.082 66.4995 373.183C67.8899 372.076 73.0949 367.818 74.6084 364.915C76.1219 362.011 77.1801 357.999 75.7158 354.923C75.3962 354.187 74.9249 353.526 74.3327 352.984C73.7405 352.442 73.0408 352.032 72.2791 351.778C71.5174 351.525 70.7109 351.436 69.9122 351.515C69.1135 351.595 68.3405 351.842 67.6438 352.24C63.5094 354.701 62.9803 363.438 63.9523 367.634C63.9523 367.794 64.3584 368.864 64.7768 369.972C63.5463 367.634 62.2174 365.333 60.8761 363.069C58.5763 359.193 56.0237 355.473 53.2348 351.933C53.7393 351.539 59.9409 346.679 61.6144 343.455C63.1033 340.6 64.1984 336.539 62.7219 333.463C62.4034 332.726 61.933 332.064 61.3413 331.521C60.7497 330.978 60.0501 330.566 59.2883 330.311C58.5265 330.057 57.7196 329.966 56.9203 330.045C56.121 330.124 55.3474 330.37 54.6499 330.768C50.5154 333.229 49.9863 341.978 50.9584 346.174C51.0322 346.469 52.3857 350.198 52.9026 351.514L52.8164 351.379C49.9837 347.975 46.8587 344.825 43.477 341.966C40.5062 339.408 37.3921 337.021 34.1499 334.817C31.1229 332.75 28.219 331.039 25.6472 329.55C24.2445 328.75 22.9402 328.049 21.7343 327.409H21.8204C21.9066 327.409 18.2766 322.77 18.0059 322.487C14.9666 319.423 7.30066 315.301 2.99395 317.491C2.28824 317.873 1.67087 318.399 1.18208 319.035C0.693285 319.671 0.344046 320.403 0.157128 321.184C-0.0297894 321.964 -0.0501889 322.775 0.0972573 323.563C0.244703 324.352 0.556685 325.1 1.01287 325.76C2.8586 328.64 6.88229 329.846 10.1062 330.092C13.3301 330.338 19.8639 328.098 21.4513 327.532C22.6818 328.221 24.0353 328.972 25.4873 329.846C28.0221 331.384 30.8768 333.156 33.8423 335.284C34.6421 335.85 35.4665 336.515 36.3033 337.093C34.7282 336.355 32.5257 335.383 32.3042 335.309C28.1944 333.992 19.4825 333.857 16.6647 337.77C16.2177 338.436 15.9155 339.189 15.7776 339.979C15.6396 340.769 15.669 341.579 15.8638 342.358C16.0586 343.136 16.4146 343.864 16.9086 344.496C17.4026 345.128 18.0238 345.65 18.7319 346.027C21.6974 347.712 25.8195 346.937 28.785 345.67C31.7505 344.402 36.6847 339.247 37.7306 338.127C39.5148 339.493 41.3114 340.945 43.1079 342.557C46.3881 345.447 49.4026 348.627 52.115 352.056C52.275 352.253 52.4104 352.474 52.5703 352.683C51.8443 352.179 47.6484 349.73 47.3777 349.595C43.4401 347.835 34.7898 346.74 31.5659 350.346C31.0473 350.957 30.6631 351.672 30.4383 352.441C30.2135 353.211 30.1531 354.02 30.261 354.815C30.3689 355.61 30.6428 356.373 31.0647 357.055C31.4866 357.737 32.0473 358.323 32.7102 358.774C35.4665 360.78 39.6625 360.46 42.7387 359.525C46.2948 358.454 52.435 353.028 52.6688 352.831C55.283 356.318 57.667 359.973 59.8056 363.77C61.4052 366.576 62.9064 369.48 64.383 372.384C63.4355 371.756 59.5718 369.48 59.2765 369.344C55.3389 367.585 46.6886 366.502 43.4524 370.095C42.9326 370.707 42.5476 371.421 42.3227 372.192C42.0978 372.963 42.0379 373.772 42.1471 374.568C42.2562 375.363 42.5319 376.127 42.9562 376.808C43.3804 377.49 43.9436 378.075 44.6091 378.524C47.3654 380.542 51.549 380.209 54.6375 379.287C58.1075 378.228 64.0139 373.06 64.4815 372.63C65.1582 373.959 65.835 375.288 66.4995 376.616C68.6651 380.997 70.8062 385.378 73.0703 389.647C73.8455 391.124 74.6699 392.564 75.5312 393.991C74.0669 393.093 71.3845 391.53 71.1384 391.407C67.2008 389.647 58.5505 388.564 55.3266 392.158C54.808 392.769 54.4239 393.483 54.1991 394.253C53.9743 395.023 53.9139 395.832 54.0218 396.627C54.1297 397.422 54.4035 398.185 54.8254 398.867C55.2474 399.549 55.808 400.135 56.471 400.586C59.2273 402.604 63.4109 402.272 66.4995 401.349C69.588 400.426 74.6576 396.169 76.0726 394.951C77.4508 397.326 78.8659 399.663 80.3794 401.878C81.0561 402.826 81.6837 403.835 82.3727 404.709L84.403 407.354C85.855 409.114 87.1963 410.763 88.5867 412.362L90.6416 414.712C89.3004 413.58 87.147 411.833 86.9502 411.698C83.2587 409.36 74.9406 406.973 71.1999 410.037C70.5928 410.563 70.1034 411.211 69.7634 411.939C69.4234 412.667 69.2404 413.458 69.2265 414.261C69.2126 415.064 69.368 415.861 69.6825 416.601C69.9971 417.34 70.4638 418.005 71.0523 418.552C73.5132 420.951 77.6723 421.271 80.8962 420.816C84.4154 420.311 90.8262 416.263 91.6137 415.758C93.2995 417.666 94.9729 419.45 96.5357 421.209C101.556 426.587 105.949 430.881 109.062 433.834C112.175 436.787 113.984 438.436 113.984 438.436C114.332 438.691 114.763 438.804 115.191 438.752C115.619 438.701 116.012 438.488 116.289 438.158C116.566 437.828 116.707 437.404 116.683 436.974C116.66 436.543 116.473 436.138 116.162 435.84C116.162 435.84 114.353 434.351 111.203 431.484Z" fill="black"/>
<path d="M37.5707 337.216C37.5707 337.216 42.6772 330.436 43.477 326.732C44.1538 323.582 44.1415 319.349 41.9143 316.79C41.4093 316.166 40.7789 315.655 40.064 315.291C39.3491 314.926 38.5656 314.715 37.7642 314.672C36.9627 314.629 36.1612 314.755 35.4114 315.041C34.6616 315.328 33.9804 315.768 33.4116 316.335C30.0893 319.842 31.8735 328.381 33.9407 332.159C34.1499 332.491 37.5091 337.278 37.5707 337.216Z" fill="black"/>
</g>
<g opacity="0.1">
<path d="M147.207 339.985C146.346 335.826 145.201 329.858 144.156 322.647C143.848 320.568 143.553 318.365 143.282 316.089C144.217 315.916 151.649 314.464 154.541 312.397C157.174 310.539 160.004 307.475 160.115 304.03C160.179 303.224 160.07 302.413 159.797 301.652C159.523 300.891 159.091 300.196 158.53 299.615C157.968 299.033 157.289 298.577 156.537 298.278C155.786 297.978 154.98 297.842 154.172 297.878C149.348 298.21 144.894 305.691 143.848 309.887C143.786 310.158 143.356 313.406 143.171 315.08C143.011 313.702 142.851 312.336 142.704 310.908C142.482 308.841 142.31 306.663 142.138 304.547C142.138 303.439 142.027 302.332 141.978 301.212C141.928 300.092 141.978 298.997 141.978 297.865C141.978 296.216 142.101 294.506 142.187 292.808C144.303 292.709 150.493 292.303 153.261 290.901C156.03 289.498 159.414 286.828 160.041 283.518C160.213 282.736 160.22 281.927 160.061 281.142C159.901 280.358 159.579 279.615 159.116 278.963C158.652 278.31 158.057 277.762 157.369 277.353C156.68 276.945 155.914 276.685 155.119 276.59C150.308 276.196 144.759 282.915 143.11 286.902C143.048 287.025 142.79 287.911 142.482 288.956C142.63 287.295 142.765 285.634 142.974 283.961C143.54 279.223 144.279 274.4 144.992 269.564C145.14 268.555 145.275 267.558 145.423 266.549C147.195 266.463 153.913 266.094 156.83 264.63C159.746 263.165 162.982 260.545 163.61 257.247C163.784 256.465 163.792 255.655 163.633 254.87C163.475 254.085 163.153 253.341 162.689 252.688C162.225 252.035 161.629 251.487 160.94 251.079C160.251 250.671 159.483 250.412 158.688 250.319C153.864 249.925 148.327 256.644 146.666 260.631C146.666 260.766 146.297 261.861 145.952 262.993C146.309 260.372 146.617 257.739 146.85 255.13C147.283 250.632 147.411 246.11 147.232 241.595C147.859 241.595 155.734 241.287 158.983 239.663C161.875 238.223 165.135 235.59 165.763 232.28C165.937 231.499 165.945 230.69 165.787 229.905C165.628 229.121 165.306 228.378 164.842 227.726C164.378 227.074 163.782 226.527 163.093 226.12C162.403 225.713 161.636 225.456 160.841 225.365C156.017 224.959 150.48 231.69 148.819 235.664C148.696 235.947 147.589 239.762 147.256 241.127C147.25 241.074 147.25 241.021 147.256 240.967C146.972 236.548 146.296 232.163 145.238 227.863C144.31 224.018 143.159 220.23 141.793 216.518C140.563 213.072 139.221 209.984 138.015 207.264C137.351 205.788 136.711 204.459 136.108 203.228H136.207C136.293 203.228 136.059 197.384 136.01 197.076C135.345 192.818 131.568 184.968 126.793 184.205C125.997 184.099 125.188 184.163 124.418 184.391C123.648 184.619 122.935 185.007 122.326 185.53C121.716 186.052 121.224 186.698 120.88 187.423C120.537 188.149 120.351 188.939 120.333 189.742C120.136 193.151 122.684 196.485 125.132 198.577C127.581 200.669 134.201 202.712 135.825 203.179C136.428 204.483 137.056 205.874 137.732 207.424C138.877 210.168 140.193 213.269 141.289 216.739C141.596 217.662 141.891 218.671 142.199 219.631C141.35 218.105 140.156 216.025 140.009 215.841C137.462 212.359 130.485 207.129 125.907 208.655C125.152 208.927 124.463 209.356 123.885 209.913C123.307 210.47 122.852 211.142 122.552 211.886C122.251 212.631 122.11 213.43 122.14 214.232C122.169 215.035 122.367 215.822 122.72 216.542C124.111 219.655 127.913 221.464 131.063 222.166C134.213 222.867 141.227 221.624 142.728 221.329C143.368 223.482 143.959 225.709 144.476 228.072C145.406 232.317 145.958 236.637 146.124 240.98C146.124 241.238 146.124 241.497 146.124 241.755C145.829 240.918 143.909 236.501 143.75 236.205C141.596 232.514 135.235 226.497 130.509 227.506C129.728 227.695 128.995 228.047 128.358 228.538C127.722 229.029 127.196 229.649 126.815 230.358C126.434 231.066 126.207 231.846 126.148 232.648C126.089 233.45 126.2 234.256 126.473 235.012C127.519 238.248 131.112 240.451 134.152 241.509C137.659 242.739 145.817 241.952 146.112 241.927C146.179 246.285 145.961 250.642 145.46 254.97C145.103 258.182 144.611 261.418 144.082 264.654C143.676 263.584 141.904 259.474 141.731 259.191C139.59 255.499 133.229 249.495 128.504 250.504C127.724 250.693 126.992 251.044 126.357 251.535C125.721 252.025 125.196 252.644 124.815 253.351C124.435 254.058 124.207 254.837 124.147 255.637C124.087 256.438 124.197 257.242 124.468 257.997C125.514 261.246 129.094 263.436 132.146 264.507C135.567 265.737 143.38 264.987 144.045 264.925C143.799 266.389 143.565 267.866 143.319 269.342C142.494 274.141 141.658 278.965 140.981 283.739C140.735 285.4 140.563 287.037 140.39 288.661C139.738 287.074 138.495 284.219 138.36 283.985C136.207 280.294 129.845 274.277 125.12 275.298C124.34 275.487 123.608 275.839 122.973 276.329C122.337 276.82 121.812 277.439 121.432 278.145C121.051 278.852 120.823 279.631 120.763 280.431C120.703 281.232 120.813 282.036 121.084 282.792C122.13 286.04 125.711 288.23 128.762 289.301C131.814 290.372 138.397 289.904 140.255 289.756C139.972 292.488 139.763 295.207 139.677 297.89C139.677 299.046 139.566 300.24 139.677 301.348C139.787 302.455 139.677 303.587 139.75 304.682C139.898 306.959 140.009 309.075 140.193 311.191C140.28 312.262 140.378 313.271 140.476 314.305C140.058 312.606 139.344 309.912 139.246 309.678C137.683 305.654 132.306 298.8 127.47 299.083C126.671 299.155 125.895 299.393 125.194 299.783C124.492 300.173 123.88 300.706 123.398 301.348C122.915 301.989 122.573 302.725 122.393 303.507C122.212 304.289 122.198 305.1 122.351 305.888C122.893 309.247 126.043 311.967 128.947 313.48C132.097 315.141 139.664 315.633 140.587 315.695C140.833 318.23 141.104 320.703 141.387 323.004C142.298 330.313 143.319 336.355 144.094 340.588C144.869 344.821 145.423 347.22 145.423 347.22C145.46 347.452 145.545 347.674 145.672 347.871C145.799 348.069 145.966 348.238 146.162 348.368C146.358 348.497 146.579 348.585 146.81 348.625C147.042 348.665 147.279 348.657 147.507 348.6C147.735 348.544 147.949 348.441 148.135 348.297C148.322 348.154 148.476 347.974 148.589 347.768C148.702 347.562 148.771 347.334 148.791 347.1C148.812 346.866 148.784 346.631 148.708 346.408C148.708 346.408 148.069 344.156 147.207 339.985Z" fill="black"/>
<path d="M143.073 220.431C143.073 220.431 151.194 217.97 154.012 215.423C156.473 213.281 158.934 209.873 158.577 206.465C158.538 205.663 158.331 204.879 157.97 204.163C157.608 203.447 157.099 202.816 156.477 202.31C155.855 201.804 155.133 201.434 154.358 201.226C153.584 201.017 152.774 200.974 151.981 201.1C147.232 201.986 143.651 209.935 143.11 214.217C143.06 214.586 142.987 220.455 143.073 220.431Z" fill="black"/>
</g>
<path d="M407.443 370.685C407.603 409.237 438.279 440.368 438.279 440.368C438.279 440.368 468.697 408.978 468.525 370.427C468.352 331.876 437.75 300.745 437.75 300.745C437.75 300.745 407.271 332.134 407.443 370.685Z" fill="#92E3A9"/>
<path d="M438.279 440.368L437.689 300.745" stroke="white" stroke-width="0.910297" stroke-miterlimit="10"/>
<path d="M437.898 350.37L420.732 335.518" stroke="white" stroke-width="0.910297" stroke-miterlimit="10"/>
<path d="M438.267 373.442L459.308 342.68" stroke="white" stroke-width="0.910297" stroke-miterlimit="10"/>
<path d="M438.058 386.743L412.71 364.324" stroke="white" stroke-width="0.910297" stroke-miterlimit="10"/>
<path d="M438.402 404.659L463.283 382.289" stroke="white" stroke-width="0.910297" stroke-miterlimit="10"/>
<path d="M438.464 420.126L418.862 404.745" stroke="white" stroke-width="0.910297" stroke-miterlimit="10"/>
<path d="M386.537 430.192C401.438 446.902 426.676 448.649 426.676 448.649C426.676 448.649 427.795 423.338 412.894 406.677C397.993 390.016 372.706 388.318 372.706 388.318C372.706 388.318 371.636 413.58 386.537 430.192Z" fill="#92E3A9"/>
<path d="M426.725 448.6L372.756 388.269" stroke="white" stroke-width="0.910297" stroke-miterlimit="10"/>
<path d="M391.939 409.704L378.773 409.864" stroke="white" stroke-width="0.910297" stroke-miterlimit="10"/>
<path d="M400.971 419.573L398.264 398.138" stroke="white" stroke-width="0.910297" stroke-miterlimit="10"/>
<path d="M405.991 425.43L386.377 425.455" stroke="white" stroke-width="0.910297" stroke-miterlimit="10"/>
<path d="M413.042 433.059L415.232 413.79" stroke="white" stroke-width="0.910297" stroke-miterlimit="10"/>
<path d="M419.022 439.753L404.601 440.614" stroke="white" stroke-width="0.910297" stroke-miterlimit="10"/>
<path d="M464.255 405.816C448.751 421.923 448.947 447.259 448.947 447.259C448.947 447.259 474.271 446.484 489.775 430.376C505.279 414.269 505.082 388.934 505.082 388.934C505.082 388.934 479.759 389.709 464.255 405.816Z" fill="#92E3A9"/>
<path d="M448.948 447.259L505.082 388.934" stroke="white" stroke-width="0.910297" stroke-miterlimit="10"/>
<path d="M485.136 409.667L483.992 396.55" stroke="white" stroke-width="0.910297" stroke-miterlimit="10"/>
<path d="M475.969 419.413L497.146 415.118" stroke="white" stroke-width="0.910297" stroke-miterlimit="10"/>
<path d="M470.506 424.864L469.017 405.299" stroke="white" stroke-width="0.910297" stroke-miterlimit="10"/>
<path d="M463.418 432.456L482.798 433.194" stroke="white" stroke-width="0.910297" stroke-miterlimit="10"/>
<path d="M457.192 438.916L455.248 424.593" stroke="white" stroke-width="0.910297" stroke-miterlimit="10"/>
<g opacity="0.1">
<path d="M407.443 370.685C407.603 409.237 438.279 440.368 438.279 440.368C438.279 440.368 468.697 408.978 468.525 370.427C468.352 331.876 437.75 300.745 437.75 300.745C437.75 300.745 407.271 332.134 407.443 370.685Z" fill="black"/>
<path d="M386.537 430.192C401.438 446.902 426.676 448.649 426.676 448.649C426.676 448.649 427.795 423.338 412.894 406.677C397.993 390.016 372.707 388.318 372.707 388.318C372.707 388.318 371.636 413.58 386.537 430.192Z" fill="black"/>
<path d="M464.255 405.816C448.751 421.923 448.948 447.259 448.948 447.259C448.948 447.259 474.271 446.484 489.775 430.376C505.279 414.269 505.082 388.934 505.082 388.934C505.082 388.934 479.759 389.709 464.255 405.816Z" fill="black"/>
</g>
<path d="M416.18 55.8527H112.643V446.545H416.18V55.8527Z" fill="white" stroke="#263238" stroke-width="0.987488" stroke-linecap="round" stroke-linejoin="round"/>
<g style="mix-blend-mode:multiply">
<path d="M161.062 55.8527H112.643V446.545H161.062V55.8527Z" fill="#92E3A9"/>
</g>
<path d="M348.737 113.575H255.65V124.526H348.737V113.575Z" fill="#92E3A9" stroke="#263238" stroke-width="0.987488" stroke-linecap="round" stroke-linejoin="round"/>
<path d="M406.003 206.883H150.837V217.834H406.003V206.883Z" fill="#92E3A9"/>
<path d="M406.003 357.396H150.837V368.347H406.003V357.396Z" fill="#92E3A9"/>
<path d="M314.32 132.438H255.65V143.39H314.32V132.438Z" fill="#92E3A9" stroke="#263238" stroke-width="0.987488" stroke-linecap="round" stroke-linejoin="round"/>
<path d="M314.32 150.908H255.65V161.859H314.32V150.908Z" fill="#92E3A9" stroke="#263238" stroke-width="0.987488" stroke-linecap="round" stroke-linejoin="round"/>
<path d="M247.578 229.893H241.536V235.935H247.578V229.893Z" fill="#92E3A9" stroke="#263238" stroke-width="0.987488" stroke-linecap="round" stroke-linejoin="round"/>
<path d="M247.578 307.598H241.536V313.64H247.578V307.598Z" fill="#92E3A9" stroke="#263238" stroke-width="0.987488" stroke-linecap="round" stroke-linejoin="round"/>
<path d="M332.839 229.893H326.797V235.935H332.839V229.893Z" fill="#92E3A9" stroke="#263238" stroke-width="0.987488" stroke-linecap="round" stroke-linejoin="round"/>
<path d="M332.839 307.598H326.797V313.64H332.839V307.598Z" fill="#92E3A9" stroke="#263238" stroke-width="0.987488" stroke-linecap="round" stroke-linejoin="round"/>
<path d="M416.18 55.8527H112.643V75.7251H416.18V55.8527Z" fill="#263238" stroke="#263238" stroke-width="0.987488" stroke-linecap="round" stroke-linejoin="round"/>
<path d="M310.801 234.089H257.373C256.916 234.089 256.478 233.907 256.155 233.584C255.832 233.261 255.65 232.823 255.65 232.366C255.65 231.909 255.832 231.471 256.155 231.148C256.478 230.825 256.916 230.643 257.373 230.643H310.801C311.257 230.643 311.696 230.825 312.019 231.148C312.342 231.471 312.523 231.909 312.523 232.366C312.523 232.823 312.342 233.261 312.019 233.584C311.696 233.907 311.257 234.089 310.801 234.089Z" fill="#263238"/>
<path d="M310.801 242.715H257.373C256.915 242.711 256.477 242.527 256.154 242.202C255.831 241.877 255.65 241.438 255.65 240.98C255.65 240.523 255.832 240.084 256.155 239.761C256.478 239.438 256.916 239.257 257.373 239.257H310.801C311.257 239.257 311.696 239.438 312.019 239.761C312.342 240.084 312.523 240.523 312.523 240.98C312.523 241.438 312.342 241.877 312.019 242.202C311.697 242.527 311.259 242.711 310.801 242.715Z" fill="#263238"/>
<path d="M310.801 251.328H257.373C256.916 251.328 256.478 251.146 256.155 250.823C255.832 250.5 255.65 250.062 255.65 249.605C255.65 249.148 255.832 248.71 256.155 248.387C256.478 248.064 256.916 247.883 257.373 247.883H310.801C311.257 247.883 311.696 248.064 312.019 248.387C312.342 248.71 312.523 249.148 312.523 249.605C312.523 250.062 312.342 250.5 312.019 250.823C311.696 251.146 311.257 251.328 310.801 251.328Z" fill="#263238"/>
<path d="M310.801 259.941H257.373C256.916 259.941 256.478 259.76 256.155 259.437C255.832 259.114 255.65 258.676 255.65 258.219C255.65 257.762 255.832 257.324 256.155 257.001C256.478 256.677 256.916 256.496 257.373 256.496H310.801C311.257 256.496 311.696 256.677 312.019 257.001C312.342 257.324 312.523 257.762 312.523 258.219C312.523 258.676 312.342 259.114 312.019 259.437C311.696 259.76 311.257 259.941 310.801 259.941Z" fill="#263238"/>
<path d="M310.801 268.555H257.373C256.916 268.555 256.478 268.373 256.155 268.05C255.832 267.727 255.65 267.289 255.65 266.832C255.65 266.375 255.832 265.937 256.155 265.614C256.478 265.291 256.916 265.109 257.373 265.109H310.801C311.257 265.109 311.696 265.291 312.019 265.614C312.342 265.937 312.523 266.375 312.523 266.832C312.523 267.289 312.342 267.727 312.019 268.05C311.696 268.373 311.257 268.555 310.801 268.555Z" fill="#263238"/>
<path d="M391.619 234.089H338.191C337.734 234.089 337.296 233.907 336.973 233.584C336.65 233.261 336.469 232.823 336.469 232.366C336.469 231.909 336.65 231.471 336.973 231.148C337.296 230.825 337.734 230.643 338.191 230.643H391.619C392.076 230.643 392.514 230.825 392.837 231.148C393.16 231.471 393.342 231.909 393.342 232.366C393.342 232.823 393.16 233.261 392.837 233.584C392.514 233.907 392.076 234.089 391.619 234.089Z" fill="#263238"/>
<path d="M391.619 242.715H338.191C337.733 242.711 337.295 242.527 336.972 242.202C336.65 241.877 336.469 241.438 336.469 240.98C336.469 240.523 336.65 240.084 336.973 239.761C337.296 239.438 337.734 239.257 338.191 239.257H391.619C392.076 239.257 392.514 239.438 392.837 239.761C393.16 240.084 393.342 240.523 393.342 240.98C393.342 241.438 393.161 241.877 392.838 242.202C392.515 242.527 392.077 242.711 391.619 242.715Z" fill="#263238"/>
<path d="M391.619 251.328H338.191C337.734 251.328 337.296 251.146 336.973 250.823C336.65 250.5 336.469 250.062 336.469 249.605C336.469 249.148 336.65 248.71 336.973 248.387C337.296 248.064 337.734 247.883 338.191 247.883H391.619C392.076 247.883 392.514 248.064 392.837 248.387C393.16 248.71 393.342 249.148 393.342 249.605C393.342 250.062 393.16 250.5 392.837 250.823C392.514 251.146 392.076 251.328 391.619 251.328Z" fill="#263238"/>
<path d="M391.619 259.941H338.191C337.734 259.941 337.296 259.76 336.973 259.437C336.65 259.114 336.469 258.676 336.469 258.219C336.469 257.762 336.65 257.324 336.973 257.001C337.296 256.677 337.734 256.496 338.191 256.496H391.619C392.076 256.496 392.514 256.677 392.837 257.001C393.16 257.324 393.342 257.762 393.342 258.219C393.342 258.676 393.16 259.114 392.837 259.437C392.514 259.76 392.076 259.941 391.619 259.941Z" fill="#263238"/>
<path d="M391.619 268.555H338.191C337.734 268.555 337.296 268.373 336.973 268.05C336.65 267.727 336.469 267.289 336.469 266.832C336.469 266.375 336.65 265.937 336.973 265.614C337.296 265.291 337.734 265.109 338.191 265.109H391.619C392.076 265.109 392.514 265.291 392.837 265.614C393.16 265.937 393.342 266.375 393.342 266.832C393.342 267.289 393.16 267.727 392.837 268.05C392.514 268.373 392.076 268.555 391.619 268.555Z" fill="#263238"/>
<path d="M310.801 310.502H257.373C256.915 310.499 256.477 310.315 256.154 309.99C255.831 309.665 255.65 309.225 255.65 308.767C255.65 308.31 255.832 307.872 256.155 307.549C256.478 307.226 256.916 307.045 257.373 307.045H310.801C311.257 307.045 311.696 307.226 312.019 307.549C312.342 307.872 312.523 308.31 312.523 308.767C312.523 309.225 312.342 309.665 312.019 309.99C311.697 310.315 311.259 310.499 310.801 310.502Z" fill="#263238"/>
<path d="M310.801 319.116H257.373C256.916 319.116 256.478 318.934 256.155 318.611C255.832 318.288 255.65 317.85 255.65 317.393C255.65 316.936 255.832 316.498 256.155 316.175C256.478 315.852 256.916 315.67 257.373 315.67H310.801C311.257 315.67 311.696 315.852 312.019 316.175C312.342 316.498 312.523 316.936 312.523 317.393C312.523 317.85 312.342 318.288 312.019 318.611C311.696 318.934 311.257 319.116 310.801 319.116Z" fill="#263238"/>
<path d="M310.801 327.729H257.373C256.916 327.729 256.478 327.548 256.155 327.225C255.832 326.901 255.65 326.463 255.65 326.006C255.65 325.549 255.832 325.111 256.155 324.788C256.478 324.465 256.916 324.284 257.373 324.284H310.801C311.257 324.284 311.696 324.465 312.019 324.788C312.342 325.111 312.523 325.549 312.523 326.006C312.523 326.463 312.342 326.901 312.019 327.225C311.696 327.548 311.257 327.729 310.801 327.729Z" fill="#263238"/>
<path d="M310.801 336.342H257.373C256.916 336.342 256.478 336.161 256.155 335.838C255.832 335.515 255.65 335.077 255.65 334.62C255.65 334.163 255.832 333.725 256.155 333.402C256.478 333.079 256.916 332.897 257.373 332.897H310.801C311.257 332.897 311.696 333.079 312.019 333.402C312.342 333.725 312.523 334.163 312.523 334.62C312.523 335.077 312.342 335.515 312.019 335.838C311.696 336.161 311.257 336.342 310.801 336.342Z" fill="#263238"/>
<path d="M310.801 344.968H257.373C256.916 344.968 256.478 344.787 256.155 344.464C255.832 344.14 255.65 343.702 255.65 343.245C255.65 342.788 255.832 342.35 256.155 342.027C256.478 341.704 256.916 341.523 257.373 341.523H310.801C311.257 341.523 311.696 341.704 312.019 342.027C312.342 342.35 312.523 342.788 312.523 343.245C312.523 343.702 312.342 344.14 312.019 344.464C311.696 344.787 311.257 344.968 310.801 344.968Z" fill="#263238"/>
<path d="M391.619 310.502H338.191C337.733 310.499 337.295 310.315 336.972 309.99C336.65 309.665 336.469 309.225 336.469 308.767C336.469 308.31 336.65 307.872 336.973 307.549C337.296 307.226 337.734 307.045 338.191 307.045H391.619C392.076 307.045 392.514 307.226 392.837 307.549C393.16 307.872 393.342 308.31 393.342 308.767C393.342 309.225 393.161 309.665 392.838 309.99C392.515 310.315 392.077 310.499 391.619 310.502Z" fill="#263238"/>
<path d="M391.619 319.116H338.191C337.734 319.116 337.296 318.934 336.973 318.611C336.65 318.288 336.469 317.85 336.469 317.393C336.469 316.936 336.65 316.498 336.973 316.175C337.296 315.852 337.734 315.67 338.191 315.67H391.619C392.076 315.67 392.514 315.852 392.837 316.175C393.16 316.498 393.342 316.936 393.342 317.393C393.342 317.85 393.16 318.288 392.837 318.611C392.514 318.934 392.076 319.116 391.619 319.116Z" fill="#263238"/>
<path d="M391.619 327.729H338.191C337.734 327.729 337.296 327.548 336.973 327.225C336.65 326.901 336.469 326.463 336.469 326.006C336.469 325.549 336.65 325.111 336.973 324.788C337.296 324.465 337.734 324.284 338.191 324.284H391.619C392.076 324.284 392.514 324.465 392.837 324.788C393.16 325.111 393.342 325.549 393.342 326.006C393.342 326.463 393.16 326.901 392.837 327.225C392.514 327.548 392.076 327.729 391.619 327.729Z" fill="#263238"/>
<path d="M391.619 336.342H338.191C337.734 336.342 337.296 336.161 336.973 335.838C336.65 335.515 336.469 335.077 336.469 334.62C336.469 334.163 336.65 333.725 336.973 333.402C337.296 333.079 337.734 332.897 338.191 332.897H391.619C392.076 332.897 392.514 333.079 392.837 333.402C393.16 333.725 393.342 334.163 393.342 334.62C393.342 335.077 393.16 335.515 392.837 335.838C392.514 336.161 392.076 336.342 391.619 336.342Z" fill="#263238"/>
<path d="M391.619 344.968H338.191C337.734 344.968 337.296 344.787 336.973 344.464C336.65 344.14 336.469 343.702 336.469 343.245C336.469 342.788 336.65 342.35 336.973 342.027C337.296 341.704 337.734 341.523 338.191 341.523H391.619C392.076 341.523 392.514 341.704 392.837 342.027C393.16 342.35 393.342 342.788 393.342 343.245C393.342 343.702 393.16 344.14 392.837 344.464C392.514 344.787 392.076 344.968 391.619 344.968Z" fill="#263238"/>
<path d="M391.619 384.295H338.191C337.734 384.295 337.296 384.113 336.973 383.79C336.65 383.467 336.469 383.029 336.469 382.572C336.469 382.115 336.65 381.677 336.973 381.354C337.296 381.031 337.734 380.849 338.191 380.849H391.619C392.076 380.849 392.514 381.031 392.837 381.354C393.16 381.677 393.342 382.115 393.342 382.572C393.342 383.029 393.16 383.467 392.837 383.79C392.514 384.113 392.076 384.295 391.619 384.295Z" fill="#263238"/>
<path d="M391.619 392.908H338.191C337.734 392.908 337.296 392.727 336.973 392.403C336.65 392.08 336.469 391.642 336.469 391.185C336.469 390.728 336.65 390.29 336.973 389.967C337.296 389.644 337.734 389.463 338.191 389.463H391.619C392.076 389.463 392.514 389.644 392.837 389.967C393.16 390.29 393.342 390.728 393.342 391.185C393.342 391.642 393.16 392.08 392.837 392.403C392.514 392.727 392.076 392.908 391.619 392.908Z" fill="#263238"/>
<path d="M391.619 401.534H338.191C337.734 401.534 337.296 401.352 336.973 401.029C336.65 400.706 336.469 400.268 336.469 399.811C336.469 399.354 336.65 398.916 336.973 398.593C337.296 398.27 337.734 398.088 338.191 398.088H391.619C392.076 398.088 392.514 398.27 392.837 398.593C393.16 398.916 393.342 399.354 393.342 399.811C393.342 400.268 393.16 400.706 392.837 401.029C392.514 401.352 392.076 401.534 391.619 401.534Z" fill="#263238"/>
<path d="M391.619 406.702H338.191C337.24 406.702 336.469 407.473 336.469 408.424C336.469 409.376 337.24 410.147 338.191 410.147H391.619C392.57 410.147 393.342 409.376 393.342 408.424C393.342 407.473 392.57 406.702 391.619 406.702Z" fill="#263238"/>
<path d="M391.619 418.761H338.191C337.734 418.761 337.296 418.579 336.973 418.256C336.65 417.933 336.469 417.495 336.469 417.038C336.469 416.581 336.65 416.143 336.973 415.82C337.296 415.497 337.734 415.315 338.191 415.315H391.619C392.076 415.315 392.514 415.497 392.837 415.82C393.16 416.143 393.342 416.581 393.342 417.038C393.342 417.495 393.16 417.933 392.837 418.256C392.514 418.579 392.076 418.761 391.619 418.761Z" fill="#263238"/>
<path d="M386.451 284.071C384.822 284.072 383.246 284.649 382.003 285.701C380.76 286.753 379.929 288.212 379.659 289.818H371.414C371.113 288.244 370.272 286.824 369.037 285.803C367.802 284.782 366.249 284.223 364.647 284.223C363.044 284.223 361.492 284.782 360.256 285.803C359.021 286.824 358.181 288.244 357.879 289.818H349.635C349.333 288.244 348.493 286.824 347.257 285.803C346.022 284.782 344.47 284.223 342.867 284.223C341.264 284.223 339.712 284.782 338.477 285.803C337.242 286.824 336.401 288.244 336.099 289.818H327.744C327.456 288.233 326.621 286.799 325.384 285.766C324.148 284.734 322.588 284.169 320.977 284.169C319.366 284.169 317.806 284.734 316.569 285.766C315.332 286.799 314.497 288.233 314.209 289.818H305.952C305.665 288.233 304.829 286.799 303.593 285.766C302.356 284.734 300.796 284.169 299.185 284.169C297.574 284.169 296.014 284.734 294.777 285.766C293.54 286.799 292.705 288.233 292.417 289.818H284.16C283.873 288.233 283.037 286.799 281.801 285.766C280.564 284.734 279.004 284.169 277.393 284.169C275.782 284.169 274.222 284.734 272.985 285.766C271.748 286.799 270.913 288.233 270.625 289.818H262.369C262.08 288.114 261.162 286.581 259.797 285.523C258.432 284.464 256.719 283.957 254.997 284.102C253.276 284.246 251.671 285.033 250.502 286.304C249.333 287.576 248.684 289.241 248.684 290.968C248.684 292.696 249.333 294.36 250.502 295.632C251.671 296.904 253.276 297.69 254.997 297.835C256.719 297.979 258.432 297.472 259.797 296.414C261.162 295.355 262.08 293.822 262.369 292.119H270.625C270.913 293.704 271.748 295.138 272.985 296.17C274.222 297.202 275.782 297.768 277.393 297.768C279.004 297.768 280.564 297.202 281.801 296.17C283.037 295.138 283.873 293.704 284.16 292.119H292.417C292.705 293.704 293.54 295.138 294.777 296.17C296.014 297.202 297.574 297.768 299.185 297.768C300.796 297.768 302.356 297.202 303.593 296.17C304.829 295.138 305.665 293.704 305.952 292.119H314.209C314.497 293.704 315.332 295.138 316.569 296.17C317.806 297.202 319.366 297.768 320.977 297.768C322.588 297.768 324.148 297.202 325.384 296.17C326.621 295.138 327.456 293.704 327.744 292.119H336.001C336.302 293.693 337.143 295.112 338.378 296.133C339.614 297.154 341.166 297.713 342.769 297.713C344.371 297.713 345.924 297.154 347.159 296.133C348.394 295.112 349.235 293.693 349.536 292.119H357.781C358.082 293.693 358.923 295.112 360.158 296.133C361.393 297.154 362.946 297.713 364.548 297.713C366.151 297.713 367.703 297.154 368.939 296.133C370.174 295.112 371.014 293.693 371.316 292.119H379.56C379.781 293.413 380.367 294.618 381.249 295.591C382.131 296.564 383.273 297.265 384.541 297.61C385.808 297.956 387.147 297.932 388.401 297.541C389.655 297.151 390.772 296.41 391.619 295.407C392.466 294.403 393.009 293.178 393.183 291.876C393.357 290.574 393.156 289.25 392.602 288.059C392.049 286.867 391.167 285.859 390.059 285.153C388.952 284.446 387.666 284.071 386.353 284.071H386.451Z" fill="#263238"/>
<path d="M225.725 381.489C223.427 381.487 221.18 382.166 219.268 383.441C217.356 384.716 215.865 386.529 214.984 388.651C214.103 390.773 213.871 393.109 214.318 395.363C214.765 397.617 215.87 399.688 217.494 401.314C219.118 402.94 221.188 404.047 223.442 404.497C225.695 404.946 228.031 404.716 230.155 403.838C232.278 402.959 234.093 401.47 235.37 399.559C236.647 397.649 237.328 395.403 237.328 393.105C237.33 391.58 237.031 390.07 236.448 388.661C235.866 387.251 235.012 385.971 233.934 384.892C232.856 383.813 231.577 382.957 230.168 382.373C228.759 381.79 227.249 381.489 225.725 381.489ZM225.725 398.888C224.577 398.891 223.455 398.552 222.5 397.916C221.545 397.281 220.8 396.376 220.36 395.316C219.92 394.257 219.804 393.09 220.027 391.965C220.251 390.84 220.803 389.806 221.614 388.994C222.425 388.183 223.459 387.631 224.585 387.408C225.71 387.184 226.876 387.3 227.936 387.74C228.995 388.181 229.9 388.925 230.536 389.88C231.172 390.835 231.51 391.957 231.508 393.105C231.505 394.638 230.894 396.107 229.81 397.191C228.727 398.275 227.257 398.885 225.725 398.888Z" fill="#92E3A9" stroke="#263238" stroke-width="0.987488" stroke-linecap="round" stroke-linejoin="round"/>
<path d="M229.182 397.719L234.719 400.414C236.101 398.715 236.974 396.66 237.237 394.486C237.5 392.312 237.142 390.107 236.205 388.128C235.268 386.149 233.79 384.475 231.942 383.3C230.094 382.125 227.951 381.497 225.762 381.489V387.309C226.97 387.322 228.144 387.713 229.119 388.428C230.094 389.142 230.821 390.144 231.197 391.293C231.573 392.441 231.579 393.679 231.216 394.832C230.852 395.984 230.137 396.994 229.17 397.719H229.182Z" fill="#263238" stroke="#263238" stroke-width="0.987488" stroke-linecap="round" stroke-linejoin="round"/>
<path d="M231.311 419.117H220.237C219.874 419.119 219.514 419.049 219.178 418.911C218.842 418.773 218.537 418.571 218.28 418.314C218.022 418.058 217.818 417.754 217.679 417.419C217.54 417.084 217.468 416.724 217.468 416.361C217.468 415.627 217.76 414.923 218.279 414.403C218.798 413.884 219.502 413.593 220.237 413.593H231.311C232.045 413.593 232.749 413.884 233.269 414.403C233.788 414.923 234.08 415.627 234.08 416.361C234.08 416.724 234.008 417.084 233.869 417.419C233.729 417.754 233.525 418.058 233.268 418.314C233.011 418.571 232.705 418.773 232.37 418.911C232.034 419.049 231.674 419.119 231.311 419.117Z" fill="#92E3A9" stroke="#263238" stroke-width="0.987488" stroke-linecap="round" stroke-linejoin="round"/>
<path d="M260.338 381.489C258.041 381.489 255.795 382.17 253.885 383.447C251.975 384.723 250.486 386.537 249.607 388.66C248.727 390.782 248.497 393.118 248.946 395.371C249.394 397.624 250.5 399.694 252.125 401.318C253.749 402.943 255.819 404.049 258.072 404.497C260.325 404.946 262.661 404.716 264.783 403.836C266.906 402.957 268.72 401.468 269.996 399.558C271.273 397.648 271.954 395.402 271.954 393.105C271.956 391.579 271.656 390.068 271.073 388.658C270.49 387.248 269.634 385.967 268.555 384.888C267.477 383.809 266.195 382.953 264.785 382.37C263.375 381.787 261.864 381.487 260.338 381.489ZM260.338 398.888C259.191 398.888 258.07 398.548 257.117 397.911C256.164 397.273 255.421 396.367 254.983 395.308C254.544 394.248 254.43 393.082 254.655 391.957C254.88 390.833 255.433 389.8 256.244 388.99C257.056 388.18 258.09 387.629 259.215 387.407C260.34 387.185 261.506 387.301 262.565 387.742C263.623 388.182 264.528 388.927 265.163 389.882C265.798 390.836 266.136 391.958 266.134 393.105C266.134 393.865 265.984 394.618 265.692 395.321C265.401 396.023 264.974 396.661 264.436 397.199C263.897 397.736 263.258 398.162 262.555 398.451C261.852 398.741 261.099 398.89 260.338 398.888Z" fill="#92E3A9" stroke="#263238" stroke-width="0.987488" stroke-linecap="round" stroke-linejoin="round"/>
<path d="M271.893 391.887C271.587 389.045 270.248 386.415 268.128 384.497C266.009 382.58 263.258 381.509 260.4 381.489V387.309C261.926 387.325 263.385 387.943 264.458 389.028C265.532 390.113 266.134 391.578 266.134 393.105C266.121 393.327 266.097 393.549 266.06 393.769L271.893 391.887Z" fill="#263238" stroke="#263238" stroke-width="0.987488" stroke-linecap="round" stroke-linejoin="round"/>
<path d="M265.875 419.117H254.801C254.438 419.119 254.078 419.049 253.742 418.911C253.407 418.773 253.101 418.571 252.844 418.314C252.587 418.058 252.383 417.754 252.243 417.419C252.104 417.084 252.032 416.724 252.032 416.361C252.032 415.627 252.324 414.923 252.843 414.403C253.363 413.884 254.067 413.593 254.801 413.593H265.875C266.61 413.593 267.314 413.884 267.833 414.403C268.352 414.923 268.644 415.627 268.644 416.361C268.644 416.724 268.572 417.084 268.433 417.419C268.294 417.754 268.09 418.058 267.832 418.314C267.575 418.571 267.27 418.773 266.934 418.911C266.598 419.049 266.238 419.119 265.875 419.117Z" fill="#92E3A9" stroke="#263238" stroke-width="0.987488" stroke-linecap="round" stroke-linejoin="round"/>
<path d="M295.161 381.489C292.864 381.489 290.618 382.17 288.708 383.447C286.797 384.723 285.309 386.537 284.429 388.66C283.55 390.782 283.32 393.118 283.768 395.371C284.217 397.624 285.323 399.694 286.947 401.318C288.572 402.943 290.642 404.049 292.895 404.497C295.148 404.946 297.484 404.716 299.606 403.836C301.729 402.957 303.543 401.468 304.819 399.558C306.096 397.648 306.777 395.402 306.777 393.105C306.778 391.579 306.479 390.068 305.896 388.658C305.313 387.248 304.457 385.967 303.378 384.888C302.299 383.809 301.018 382.953 299.608 382.37C298.198 381.787 296.687 381.487 295.161 381.489ZM295.161 398.888C294.014 398.888 292.893 398.548 291.94 397.911C290.987 397.273 290.244 396.367 289.805 395.308C289.367 394.248 289.253 393.082 289.478 391.957C289.702 390.833 290.256 389.8 291.067 388.99C291.879 388.18 292.913 387.629 294.038 387.407C295.163 387.185 296.329 387.301 297.387 387.742C298.446 388.182 299.351 388.927 299.986 389.882C300.621 390.836 300.959 391.958 300.957 393.105C300.957 393.865 300.807 394.618 300.515 395.321C300.224 396.023 299.797 396.661 299.258 397.199C298.72 397.736 298.081 398.162 297.378 398.451C296.675 398.741 295.922 398.89 295.161 398.888Z" fill="#92E3A9" stroke="#263238" stroke-width="0.987488" stroke-linecap="round" stroke-linejoin="round"/>
<path d="M295.223 381.489V387.309C296.198 387.311 297.157 387.558 298.011 388.029C298.865 388.5 299.587 389.179 300.109 390.002C300.631 390.826 300.937 391.768 300.998 392.742C301.059 393.715 300.873 394.688 300.458 395.571C300.043 396.454 299.412 397.217 298.624 397.791C297.835 398.365 296.914 398.73 295.947 398.854C294.979 398.977 293.996 398.854 293.089 398.497C292.182 398.139 291.379 397.559 290.756 396.809L286.154 400.402C287.386 401.921 288.983 403.105 290.796 403.842C292.609 404.579 294.579 404.845 296.522 404.616C298.466 404.388 300.32 403.671 301.912 402.533C303.504 401.396 304.783 399.874 305.629 398.109C306.475 396.345 306.861 394.395 306.751 392.441C306.641 390.488 306.039 388.593 305.001 386.935C303.962 385.276 302.521 383.907 300.812 382.955C299.102 382.003 297.179 381.499 295.223 381.489Z" fill="#263238" stroke="#263238" stroke-width="0.987488" stroke-linecap="round" stroke-linejoin="round"/>
<path d="M300.698 419.117H289.624C289.261 419.119 288.901 419.049 288.565 418.911C288.229 418.773 287.924 418.571 287.667 418.315C287.41 418.058 287.206 417.754 287.066 417.419C286.927 417.084 286.855 416.724 286.855 416.361C286.854 415.997 286.924 415.636 287.063 415.3C287.201 414.963 287.405 414.657 287.663 414.4C287.92 414.142 288.226 413.939 288.562 413.8C288.899 413.661 289.26 413.591 289.624 413.593H300.698C301.433 413.593 302.137 413.884 302.656 414.403C303.175 414.923 303.467 415.627 303.467 416.361C303.467 416.724 303.395 417.084 303.256 417.419C303.117 417.754 302.912 418.058 302.655 418.315C302.398 418.571 302.093 418.773 301.757 418.911C301.421 419.049 301.061 419.119 300.698 419.117Z" fill="#92E3A9" stroke="#263238" stroke-width="0.987488" stroke-linecap="round" stroke-linejoin="round"/>
<path d="M175.902 202.453C204.608 202.453 227.878 179.183 227.878 150.477C227.878 121.772 204.608 98.5015 175.902 98.5015C147.197 98.5015 123.926 121.772 123.926 150.477C123.926 179.183 147.197 202.453 175.902 202.453Z" fill="white"/>
<path d="M191.652 439.642C191.652 439.642 199.158 450.926 198.125 455.392C197.091 459.859 190.496 458.481 187.37 453.67C184.245 448.858 176.296 441.672 177.736 438.584C179.175 435.495 188.847 436.898 191.652 439.642Z" fill="white" stroke="#263238" stroke-width="1.02307" stroke-linecap="round" stroke-linejoin="round"/>
<path d="M159.401 439.014C159.401 439.014 150.333 452.476 151.785 456.155C153.237 459.834 157.937 458.739 161.53 455.417C165.123 452.095 172.297 442.767 172.297 442.767C172.297 442.767 166.267 435.335 159.401 439.014Z" fill="white" stroke="#263238" stroke-width="1.02307" stroke-linecap="round" stroke-linejoin="round"/>
<path d="M151.785 456.155C154.244 456.494 156.746 456.005 158.897 454.765C163.031 452.673 170.242 443.235 170.242 443.235" stroke="#263238" stroke-width="0.767303" stroke-linecap="round" stroke-linejoin="round"/>
<path d="M180.258 440.836C180.258 440.836 184.183 448.219 188.601 452.402C193.018 456.586 195.184 457.78 198.088 455.392" stroke="#263238" stroke-width="0.767303" stroke-linecap="round" stroke-linejoin="round"/>
<path d="M146.666 271.028C146.666 271.028 138.729 287.221 139.086 293.841C139.443 300.461 140.895 333.955 143.06 344.993C145.226 356.03 147.355 383.519 148.831 394.508C150.308 405.496 159.77 431.238 159.77 431.238C159.77 431.238 158.318 437.132 159.401 438.965C160.484 440.799 171.94 443.826 172.297 442.718C172.654 441.611 174.463 438.301 174.758 434.991C175.053 431.681 169.713 396.353 171.878 388.626C174.044 380.898 174.463 328.947 174.758 323.595C175.053 318.242 174.672 308.829 174.672 308.829C175.315 309.027 176.003 309.029 176.648 308.833C177.292 308.638 177.864 308.255 178.289 307.734C179.729 305.888 184.503 355.907 185.955 367.683C187.407 379.459 184.146 382.769 183.064 390.127C181.981 397.485 179.458 421.394 179.458 424.347C179.458 427.3 176.21 436.849 177.649 438.695C179.089 440.54 182.153 440.233 183.408 440.577C187.173 441.623 190.114 439.987 191.554 439.617C192.994 439.248 194.212 433.92 194.212 433.92C194.212 433.92 205.803 401.165 207.969 387.543C210.134 373.922 213.74 348.647 213.026 333.192C212.312 317.738 207.969 286.434 207.969 286.434L206.886 277.23L146.666 271.028Z" fill="#263238" stroke="#263238" stroke-width="1.02307" stroke-linecap="round" stroke-linejoin="round"/>
<path d="M141.596 289.756C141.596 289.756 140.895 298.837 146.838 304.768" stroke="white" stroke-width="0.506629" stroke-linecap="round" stroke-linejoin="round"/>
<path d="M141.941 302.676C141.941 302.676 145.435 308.62 149.631 309.309" stroke="white" stroke-width="0.506629" stroke-linecap="round" stroke-linejoin="round"/>
<path d="M169.873 402.051C169.873 402.051 164.951 413.79 164.286 420.2C163.622 426.611 169.873 424.113 171.276 428.383C172.678 432.653 162.896 432.308 164.643 433.367C166.39 434.425 171.62 435.151 171.62 435.151" stroke="white" stroke-width="0.511535" stroke-linecap="round" stroke-linejoin="round"/>
<path d="M179.348 431.238C180.393 430.881 192.268 428.777 190.865 422.341C189.462 415.906 182.485 415.574 183.482 408.105C184.479 400.636 195.344 384.245 195.344 379.619C195.344 374.992 187.666 357.753 186.964 347.072" stroke="white" stroke-width="0.511535" stroke-linecap="round" stroke-linejoin="round"/>
<path d="M196.414 289.067C196.414 289.067 188.379 300.585 187.333 302.332C186.287 304.079 196.759 294.654 196.759 294.654" stroke="white" stroke-width="0.506629" stroke-linecap="round" stroke-linejoin="round"/>
<path d="M175.398 284.994C175.398 284.994 176.271 293.411 176.271 295.146V304.731" stroke="white" stroke-width="0.506629" stroke-linecap="round" stroke-linejoin="round"/>
<path d="M176.271 299.514C176.271 299.514 180.049 298.936 180.91 296.032C181.772 293.128 181.501 287.32 181.501 287.32" stroke="white" stroke-width="0.506629" stroke-linecap="round" stroke-linejoin="round"/>
<path d="M249.178 185.128C244.846 172.491 244.12 165.637 243.764 162.032C243.407 158.426 239.432 159.497 239.432 159.497C239.432 159.497 230.819 164.554 230.819 165.649C230.819 166.744 234.793 193.446 235.507 198.134C235.94 200.883 236.183 203.658 236.233 206.44C236.233 206.44 221.073 190.197 217.099 186.223C214.072 183.184 211.672 180.587 209.101 179.037C207.71 177.806 205.299 177.351 201.582 176.121C195.085 173.955 188.232 168.898 180.283 169.255C175.064 169.613 169.941 170.835 165.123 172.872C165.123 172.872 153.581 178.286 145.632 181.892C144.706 182.305 143.828 182.817 143.011 183.417C141.707 183.257 138.987 183.959 135.887 190.911C131.568 200.657 112.077 226.288 108.816 235.307C105.555 244.327 112.421 253.358 120.001 260.569C125.47 265.947 130.649 271.611 135.518 277.538L144.131 266.931C144.375 269.291 144.786 271.63 145.361 273.932C146.444 277.538 150.05 281.512 164.496 282.546C178.941 283.579 211.389 285.573 210.331 278.214C208.842 267.755 209.605 234.175 208.892 225.156C208.68 219.37 208.799 213.578 209.248 207.806C210.91 209.91 214.17 213.811 216.447 215.349C219.695 217.514 233.427 227.653 238.842 229.844C244.256 232.034 251.836 228.404 255.084 221.23C258.333 214.057 253.509 197.765 249.178 185.128ZM131.518 245.04C130.066 239.269 129.353 237.104 129.353 237.104C129.353 237.104 138.606 227.137 143.06 221.821C143.663 236.082 144.045 251.685 143.626 253.974C143.298 257.811 143.385 261.672 143.885 265.491C141.473 262.181 132.749 250.011 131.518 245.04Z" fill="#92E3A9" stroke="#263238" stroke-width="1.01326" stroke-linecap="round" stroke-linejoin="round"/>
<path opacity="0.1" d="M249.178 185.128C244.846 172.491 244.12 165.637 243.764 162.032C243.407 158.426 239.432 159.497 239.432 159.497C239.432 159.497 230.819 164.554 230.819 165.649C230.819 166.744 234.793 193.446 235.507 198.134C235.94 200.883 236.183 203.658 236.233 206.44C236.233 206.44 221.073 190.197 217.099 186.223C214.072 183.184 211.672 180.587 209.101 179.037C207.71 177.806 205.299 177.351 201.582 176.121C195.085 173.955 188.232 168.898 180.283 169.255C175.064 169.613 169.941 170.835 165.123 172.872C165.123 172.872 153.581 178.286 145.632 181.892C144.706 182.305 143.828 182.817 143.011 183.417C141.707 183.257 138.987 183.959 135.887 190.911C131.568 200.657 112.077 226.288 108.816 235.307C105.555 244.327 112.421 253.358 120.001 260.569C125.47 265.947 130.649 271.611 135.518 277.538L144.131 266.931C144.375 269.291 144.786 271.63 145.361 273.932C146.444 277.538 150.05 281.512 164.496 282.546C178.941 283.579 211.389 285.573 210.331 278.214C208.842 267.755 209.605 234.175 208.892 225.156C208.68 219.37 208.799 213.578 209.248 207.806C210.91 209.91 214.17 213.811 216.447 215.349C219.695 217.514 233.427 227.653 238.842 229.844C244.256 232.034 251.836 228.404 255.084 221.23C258.333 214.057 253.509 197.765 249.178 185.128ZM131.518 245.04C130.066 239.269 129.353 237.104 129.353 237.104C129.353 237.104 138.606 227.137 143.06 221.821C143.663 236.082 144.045 251.685 143.626 253.974C143.298 257.811 143.385 261.672 143.885 265.491C141.473 262.181 132.749 250.011 131.518 245.04Z" fill="black"/>
<path d="M147.527 220.271C149.812 216.841 151.8 213.222 153.47 209.455" stroke="#263238" stroke-width="0.759943" stroke-linecap="round" stroke-linejoin="round"/>
<path d="M156.608 210.5C155.773 212.241 154.582 213.788 153.114 215.041" stroke="#263238" stroke-width="0.759943" stroke-linecap="round" stroke-linejoin="round"/>
<path d="M236.184 206.427C236.232 208.507 236.692 210.556 237.537 212.457C238.382 214.358 239.595 216.072 241.106 217.502" stroke="#263238" stroke-width="1.01326" stroke-linecap="round" stroke-linejoin="round"/>
<path d="M237.611 212.248C237.317 215.532 238.053 218.826 239.715 221.673" stroke="#263238" stroke-width="1.01326" stroke-linecap="round" stroke-linejoin="round"/>
<path d="M129.353 237.104C129.353 237.104 126.695 234.581 120.136 235.676" stroke="#263238" stroke-width="0.759943" stroke-linecap="round" stroke-linejoin="round"/>
<path d="M116.506 234.224C116.506 234.224 118.328 231.308 125.231 233.486" stroke="#263238" stroke-width="0.759943" stroke-linecap="round" stroke-linejoin="round"/>
<path d="M216.927 196.744C215.475 197.1 209.285 207.658 209.285 207.658L224.211 203.659" stroke="#263238" stroke-width="0.759943" stroke-linecap="round" stroke-linejoin="round"/>
<path d="M174.069 189.545C174.069 189.545 176.862 193.385 183.15 191.65C189.437 189.915 191.529 183.27 190.533 179.074C189.536 174.878 168.482 178.373 174.069 189.545Z" fill="white" stroke="#263238" stroke-width="1.01326" stroke-linecap="round" stroke-linejoin="round"/>
<path d="M168.089 165.637C168.089 165.637 163.868 168.442 163.314 170.977C162.761 173.512 164.151 181.646 165.271 184.451C166.39 187.257 170.057 193.717 170.057 193.717C170.057 193.717 182.694 186.42 183.593 185.854C184.491 185.288 193.437 190.345 195.393 189.545C197.35 188.745 190.619 171.568 187.53 167.926C184.442 164.283 172.58 162.253 168.089 165.637Z" fill="white" stroke="#263238" stroke-width="1.01326" stroke-linecap="round" stroke-linejoin="round"/>
<path d="M165.812 156.359C165.812 156.359 166.095 160.85 166.661 167.593C167.227 174.336 169.504 179.664 173.195 182.753C176.887 185.842 182.178 187.527 183.58 185.841C184.983 184.156 186.669 177.142 186.041 172.921C185.414 168.701 184.639 159.731 184.639 159.731L165.812 156.359Z" fill="white" stroke="#263238" stroke-width="1.01326" stroke-linecap="round" stroke-linejoin="round"/>
<g style="mix-blend-mode:multiply" opacity="0.5">
<path d="M185.5 167.667C185.082 163.742 184.7 159.731 184.7 159.731L165.812 156.359C165.812 156.359 166.095 160.85 166.661 167.593C166.875 170.712 167.594 173.774 168.79 176.662L185.5 167.667Z" fill="#92E3A9"/>
</g>
<path d="M159.66 149.641C159.66 149.641 155.451 145.432 154.602 149.074C153.753 152.717 157.137 158.352 161.911 156.937V153.578L159.66 149.641Z" fill="white" stroke="#263238" stroke-width="1.01326" stroke-linecap="round" stroke-linejoin="round"/>
<path opacity="0.5" d="M159.66 149.641C159.66 149.641 155.451 145.432 154.602 149.074C153.753 152.717 157.137 158.352 161.911 156.937V153.578L159.66 149.641Z" fill="#92E3A9" stroke="#263238" stroke-width="1.01326" stroke-linecap="round" stroke-linejoin="round"/>
<path d="M155.968 142.036C155.968 142.036 162.994 160.85 169.171 164.505C175.348 168.159 187.703 171.519 191.074 158.352C194.446 145.186 185.463 126.052 182.375 120.429C179.286 114.805 167.769 113.132 160.472 118.743C153.175 124.354 151.514 129.67 155.968 142.036Z" fill="white" stroke="#263238" stroke-width="1.01326" stroke-linecap="round" stroke-linejoin="round"/>
<g style="mix-blend-mode:multiply" opacity="0.5">
<path d="M163.757 126.101C166.739 124.722 169.972 123.968 173.257 123.886L180.258 117.992C175.656 114.449 166.612 114.018 160.509 118.718C153.2 124.342 151.514 129.67 156.005 142.036C156.005 142.036 163.031 160.85 169.208 164.505C171.399 165.793 173.772 166.743 176.247 167.323C173.269 163.484 168.692 157.38 167.24 154.267C165.025 149.518 164.077 139.711 161.222 134.013C158.368 128.316 159.327 128.316 163.757 126.101Z" fill="#92E3A9"/>
</g>
<path d="M178.474 136.413C178.474 136.413 181.279 141.47 180.16 142.565C179.78 142.893 179.323 143.117 178.831 143.216C178.34 143.315 177.831 143.286 177.354 143.131" stroke="#263238" stroke-width="1.01326" stroke-linecap="round" stroke-linejoin="round"/>
<path d="M165.554 135.576C165.554 135.576 166.12 132.205 170.328 132.205" stroke="#263238" stroke-width="2.02651" stroke-linecap="round" stroke-linejoin="round"/>
<path d="M168.089 138.948C168.089 138.948 171.177 140.35 172.297 137.262" stroke="#263238" stroke-width="1.01326" stroke-linecap="round" stroke-linejoin="round"/>
<path d="M181.562 136.696C181.562 136.696 184.651 138.099 185.783 135.01" stroke="#263238" stroke-width="1.01326" stroke-linecap="round" stroke-linejoin="round"/>
<path d="M179.003 130.248C179.753 129.484 180.766 129.034 181.836 128.991C182.906 128.947 183.952 129.313 184.762 130.014" stroke="#263238" stroke-width="2.02651" stroke-linecap="round" stroke-linejoin="round"/>
<path d="M191.652 147.537C188.379 146.109 180.578 142.959 177.969 144.276C174.598 145.962 165.886 151.868 165.886 156.359C165.886 156.359 160.275 148.779 160.275 145.961C160.275 143.144 162.514 142.27 160.558 138.665C158.601 135.059 155.771 134.727 156.62 130.519C157.396 126.618 165.16 122.484 168.925 121.905C171.278 123.896 174.273 124.963 177.354 124.908C183.507 124.908 188.588 120.958 188.588 116.061C188.588 111.163 183.556 107.226 177.354 107.226C175.974 107.219 174.601 107.423 173.281 107.829C167.399 107.398 166.28 111.754 162.207 114.141C158.134 116.528 155.574 123.567 155.574 123.567H155.747C152.769 127.923 152.781 133.177 156.017 142.024C156.017 142.024 163.044 160.838 169.221 164.493C175.398 168.147 187.752 171.506 191.123 158.34C191.942 154.799 192.122 151.14 191.652 147.537Z" fill="#263238" stroke="#263238" stroke-width="1.01326" stroke-linecap="round" stroke-linejoin="round"/>
<path d="M184.946 147.253C184.946 147.253 180.738 153.147 175.964 149.222" stroke="white" stroke-width="1.01326" stroke-linecap="round" stroke-linejoin="round"/>
<path d="M144.5 266.34C146.168 267.392 147.635 268.734 148.831 270.302C150.298 272.31 151.866 274.24 153.532 276.085C153.532 276.085 157.494 276.442 157.137 278.251C156.78 280.06 156.054 281.13 154.246 281.13C152.437 281.13 148.475 277.525 148.475 277.525L142.704 286.545C142.704 286.545 137.289 282.582 135.481 277.525L144.5 266.34Z" fill="white" stroke="#263238" stroke-width="1.01326" stroke-linecap="round" stroke-linejoin="round"/>
<path d="M175.902 202.453C204.608 202.453 227.878 179.183 227.878 150.477C227.878 121.772 204.608 98.5015 175.902 98.5015C147.197 98.5015 123.926 121.772 123.926 150.477C123.926 179.183 147.197 202.453 175.902 202.453Z" stroke="#263238" stroke-width="2.02651" stroke-linecap="round" stroke-linejoin="round"/>
<path d="M222.833 140.375C222.833 140.375 219.215 140.006 218.502 142.171C217.788 144.337 216.693 146.503 216.693 147.955C216.693 149.407 217.05 150.477 218.858 150.834C220.667 151.191 221.75 148.668 221.75 148.668L222.833 140.375Z" fill="white" stroke="#263238" stroke-width="1.01326" stroke-linecap="round" stroke-linejoin="round"/>
<path d="M223.547 137.84C223.547 137.84 221.75 147.586 221.75 150.477C221.829 152.701 222.584 154.847 223.916 156.63C224.574 157.376 225.461 157.882 226.438 158.069L228.247 155.904C228.247 155.904 226.081 158.795 228.961 162.401C231.84 166.006 234.018 165.649 236.541 164.566C239.063 163.484 239.789 162.044 238.706 158.069C237.623 154.095 236.91 147.598 236.184 143.636C235.458 139.674 232.935 138.222 231.496 138.222C230.056 138.222 226.106 136.757 223.547 137.84Z" fill="white" stroke="#263238" stroke-width="1.01326" stroke-linecap="round" stroke-linejoin="round"/>
<path d="M222.23 152.508C222.23 152.508 221.59 150.268 224.31 149.948C227.029 149.628 231.52 149.148 231.52 149.148" stroke="#263238" stroke-width="0.506629" stroke-linecap="round" stroke-linejoin="round"/>
<path d="M222.55 146.749C222.55 146.749 228.789 145.137 231.04 145.457" stroke="#263238" stroke-width="0.506629" stroke-linecap="round" stroke-linejoin="round"/>
<path d="M223.03 142.258C225.358 141.844 227.716 141.63 230.081 141.618" stroke="#263238" stroke-width="0.506629" stroke-linecap="round" stroke-linejoin="round"/>
<path d="M225.109 154.267C225.603 154.711 226.195 155.031 226.837 155.2C227.479 155.369 228.153 155.383 228.801 155.239" stroke="#263238" stroke-width="0.506629" stroke-linecap="round" stroke-linejoin="round"/>
</svg>
