<svg width="33" height="33" viewBox="0 0 33 33" fill="none" xmlns="http://www.w3.org/2000/svg">
<path d="M16.5 23.375C14.5979 23.375 12.9768 22.7045 11.6366 21.3634C10.2965 20.0223 9.62592 18.4012 9.625 16.5C9.62409 14.5988 10.2946 12.9777 11.6366 11.6366C12.9786 10.2955 14.5998 9.625 16.5 9.625C18.4003 9.625 20.0218 10.2955 21.3648 11.6366C22.7077 12.9777 23.3778 14.5988 23.375 16.5C23.3723 18.4012 22.7017 20.0228 21.3634 21.3648C20.025 22.7068 18.4039 23.3768 16.5 23.375ZM2.75 17.875C2.36042 17.875 2.03409 17.743 1.771 17.479C1.50792 17.215 1.37592 16.8887 1.375 16.5C1.37409 16.1113 1.50609 15.785 1.771 15.521C2.03592 15.257 2.36225 15.125 2.75 15.125H5.5C5.88959 15.125 6.21638 15.257 6.48038 15.521C6.74438 15.785 6.87592 16.1113 6.875 16.5C6.87409 16.8887 6.74209 17.2155 6.479 17.4804C6.21592 17.7453 5.88959 17.8768 5.5 17.875H2.75ZM27.5 17.875C27.1104 17.875 26.7841 17.743 26.521 17.479C26.2579 17.215 26.1259 16.8887 26.125 16.5C26.1241 16.1113 26.2561 15.785 26.521 15.521C26.7859 15.257 27.1123 15.125 27.5 15.125H30.25C30.6396 15.125 30.9664 15.257 31.2304 15.521C31.4944 15.785 31.6259 16.1113 31.625 16.5C31.6241 16.8887 31.4921 17.2155 31.229 17.4804C30.9659 17.7453 30.6396 17.8768 30.25 17.875H27.5ZM16.5 6.875C16.1104 6.875 15.7841 6.743 15.521 6.479C15.2579 6.215 15.1259 5.88867 15.125 5.5V2.75C15.125 2.36042 15.257 2.03408 15.521 1.771C15.785 1.50792 16.1113 1.37592 16.5 1.375C16.8887 1.37408 17.2155 1.50608 17.4804 1.771C17.7453 2.03592 17.8768 2.36225 17.875 2.75V5.5C17.875 5.88958 17.743 6.21638 17.479 6.48038C17.215 6.74438 16.8887 6.87592 16.5 6.875ZM16.5 31.625C16.1104 31.625 15.7841 31.493 15.521 31.229C15.2579 30.965 15.1259 30.6387 15.125 30.25V27.5C15.125 27.1104 15.257 26.7841 15.521 26.521C15.785 26.2579 16.1113 26.1259 16.5 26.125C16.8887 26.1241 17.2155 26.2561 17.4804 26.521C17.7453 26.7859 17.8768 27.1123 17.875 27.5V30.25C17.875 30.6396 17.743 30.9664 17.479 31.2304C17.215 31.4944 16.8887 31.6259 16.5 31.625ZM7.76875 9.69375L6.29063 8.25C6.01563 7.99792 5.88363 7.67708 5.89463 7.2875C5.90563 6.89792 6.03763 6.56563 6.29063 6.29063C6.56563 6.01563 6.89792 5.87813 7.2875 5.87813C7.67709 5.87813 7.99792 6.01563 8.25 6.29063L9.69376 7.76875C9.94584 8.04375 10.0719 8.36458 10.0719 8.73125C10.0719 9.09792 9.94584 9.41875 9.69376 9.69375C9.44167 9.96875 9.1268 10.1008 8.74913 10.0898C8.37146 10.0788 8.04467 9.94675 7.76875 9.69375ZM24.75 26.7094L23.3063 25.2313C23.0542 24.9563 22.9281 24.6299 22.9281 24.2523C22.9281 23.8746 23.0542 23.5593 23.3063 23.3063C23.5583 23.0313 23.8737 22.8997 24.2523 22.9116C24.6308 22.9235 24.9572 23.0551 25.2313 23.3063L26.7094 24.75C26.9844 25.0021 27.1164 25.3229 27.1054 25.7125C27.0944 26.1021 26.9624 26.4344 26.7094 26.7094C26.4344 26.9844 26.1021 27.1219 25.7125 27.1219C25.3229 27.1219 25.0021 26.9844 24.75 26.7094ZM23.3063 9.69375C23.0313 9.44167 22.8993 9.12679 22.9103 8.74913C22.9213 8.37146 23.0533 8.04467 23.3063 7.76875L24.75 6.29063C25.0021 6.01563 25.3229 5.88363 25.7125 5.89463C26.1021 5.90563 26.4344 6.03763 26.7094 6.29063C26.9844 6.56563 27.1219 6.89792 27.1219 7.2875C27.1219 7.67708 26.9844 7.99792 26.7094 8.25L25.2313 9.69375C24.9563 9.94583 24.6354 10.0719 24.2688 10.0719C23.9021 10.0719 23.5813 9.94583 23.3063 9.69375ZM6.29063 26.7094C6.01563 26.4344 5.87813 26.1021 5.87813 25.7125C5.87813 25.3229 6.01563 25.0021 6.29063 24.75L7.76875 23.3063C8.04375 23.0542 8.37009 22.9281 8.74775 22.9281C9.12542 22.9281 9.44075 23.0542 9.69376 23.3063C9.96875 23.5583 10.1008 23.8737 10.0898 24.2523C10.0788 24.6308 9.94675 24.9572 9.69376 25.2313L8.25 26.7094C7.99792 26.9844 7.67709 27.1164 7.2875 27.1054C6.89792 27.0944 6.56563 26.9624 6.29063 26.7094Z" fill="#0A0A0A"/>
</svg>
