<svg width="515" height="579" viewBox="0 0 515 579" fill="none" xmlns="http://www.w3.org/2000/svg">
<path d="M248.21 578.53C359.818 578.53 450.293 560.437 450.293 538.117C450.293 515.797 359.818 497.703 248.21 497.703C136.603 497.703 46.1278 515.797 46.1278 538.117C46.1278 560.437 136.603 578.53 248.21 578.53Z" fill="#92E3A9"/>
<path opacity="0.5" d="M248.21 578.53C359.818 578.53 450.293 560.437 450.293 538.117C450.293 515.797 359.818 497.703 248.21 497.703C136.603 497.703 46.1278 515.797 46.1278 538.117C46.1278 560.437 136.603 578.53 248.21 578.53Z" fill="white"/>
<path d="M462.743 0.500122H317.036C312.059 0.500122 308.024 4.53509 308.024 9.51247V170.135C308.024 175.113 312.059 179.148 317.036 179.148H462.743C467.72 179.148 471.755 175.113 471.755 170.135V9.51247C471.755 4.53509 467.72 0.500122 462.743 0.500122Z" fill="white" stroke="#263238" stroke-linecap="round" stroke-linejoin="round"/>
<path d="M317.036 0.500113H462.728C465.106 0.500113 467.387 1.4449 469.069 3.12663C470.751 4.80837 471.696 7.08928 471.696 9.46761V18.8237H308.024V9.51246C308.018 8.32728 308.247 7.15267 308.698 6.05656C309.148 4.96045 309.812 3.96458 310.65 3.12652C311.488 2.28846 312.484 1.62484 313.58 1.17403C314.676 0.723225 315.851 0.494172 317.036 0.500113Z" fill="#263238" stroke="#263238" stroke-linecap="round" stroke-linejoin="round"/>
<path d="M316.946 95.8848H382.828" stroke="#263238" stroke-linecap="round" stroke-linejoin="round"/>
<path d="M316.946 104.389H382.828" stroke="#263238" stroke-linecap="round" stroke-linejoin="round"/>
<path d="M316.946 112.893H382.828" stroke="#263238" stroke-linecap="round" stroke-linejoin="round"/>
<path d="M316.946 121.397H382.828" stroke="#263238" stroke-linecap="round" stroke-linejoin="round"/>
<path d="M316.946 129.901H382.828" stroke="#263238" stroke-linecap="round" stroke-linejoin="round"/>
<path d="M316.946 138.42H382.828" stroke="#263238" stroke-linecap="round" stroke-linejoin="round"/>
<path d="M316.946 146.925H382.828" stroke="#263238" stroke-linecap="round" stroke-linejoin="round"/>
<path d="M316.946 155.429H382.828" stroke="#263238" stroke-linecap="round" stroke-linejoin="round"/>
<path d="M316.946 163.933H382.828" stroke="#263238" stroke-linecap="round" stroke-linejoin="round"/>
<path d="M394.411 95.8848H460.292" stroke="#263238" stroke-linecap="round" stroke-linejoin="round"/>
<path d="M394.411 104.389H460.292" stroke="#263238" stroke-linecap="round" stroke-linejoin="round"/>
<path d="M394.411 112.893H460.292" stroke="#263238" stroke-linecap="round" stroke-linejoin="round"/>
<path d="M394.411 121.397H460.292" stroke="#263238" stroke-linecap="round" stroke-linejoin="round"/>
<path d="M394.411 129.901H460.292" stroke="#263238" stroke-linecap="round" stroke-linejoin="round"/>
<path d="M394.411 138.42H460.292" stroke="#263238" stroke-linecap="round" stroke-linejoin="round"/>
<path d="M394.411 146.925H460.292" stroke="#263238" stroke-linecap="round" stroke-linejoin="round"/>
<path d="M394.411 155.429H460.292" stroke="#263238" stroke-linecap="round" stroke-linejoin="round"/>
<path d="M394.411 163.933H460.292" stroke="#263238" stroke-linecap="round" stroke-linejoin="round"/>
<path d="M361.007 42.0351C361.332 41.0252 361.503 39.9722 361.515 38.9114C361.515 35.0404 357.584 34.8162 353.728 34.8162H352.757V33.9045H369.586V34.8162C365.207 34.8162 363.607 37.6111 362.247 41.7511L353.28 68.5191C352.607 70.5069 352.039 71.9865 349.932 71.9865H349.752L341.861 46.4142L334.523 68.5789C333.835 70.5667 333.267 72.0463 331.16 72.0463H330.995L319.517 34.8162H315.482V33.9045H330.248V34.8162H326.048L334.568 64.14H334.911L341.338 44.6655L338.349 34.891H334.313V33.9045H349.095V34.8162H344.895L353.414 64.14H353.743L361.007 42.0351Z" fill="#92E3A9"/>
<path d="M460.755 25.4299H392.961V86.7079H460.755V25.4299Z" fill="#92E3A9" stroke="#263238" stroke-width="2" stroke-linecap="round" stroke-linejoin="round"/>
<path d="M460.755 51.0471C458.481 51.1766 456.222 51.4916 454 51.9887C443.702 54.2306 441.012 69.012 429.369 69.012C419.056 69.012 418.174 55.1273 403.393 53.3338C399.797 52.7674 396.114 53.4197 392.931 55.1871V86.7079H460.755V51.0471Z" fill="#263238" stroke="#263238" stroke-linecap="round" stroke-linejoin="round"/>
<path d="M415.484 39.4492C415.487 40.9581 415.042 42.4339 414.206 43.6896C413.37 44.9454 412.179 45.9247 410.786 46.5035C409.392 47.0822 407.859 47.2345 406.379 46.9408C404.899 46.6472 403.539 45.9209 402.472 44.854C401.405 43.7871 400.679 42.4276 400.385 40.9476C400.092 39.4676 400.244 37.9337 400.823 36.5403C401.401 35.1469 402.381 33.9566 403.637 33.1202C404.892 32.2838 406.368 31.8389 407.877 31.8418C409.895 31.8418 411.83 32.6433 413.256 34.07C414.683 35.4967 415.484 37.4316 415.484 39.4492Z" fill="white" stroke="#263238" stroke-linecap="round" stroke-linejoin="round"/>
<path d="M463.849 5.86597H312.941V11.6799H463.849V5.86597Z" fill="white" stroke="#263238" stroke-linecap="round" stroke-linejoin="round"/>
<path d="M454.433 214.793H389.105C386.536 214.793 384.073 215.814 382.257 217.63C380.44 219.446 379.42 221.91 379.42 224.478V259.422C379.42 261.99 380.44 264.454 382.257 266.27C384.073 268.086 386.536 269.107 389.105 269.107H391.108C389.075 273.59 385.129 280.465 378.897 284.546C378.897 284.546 392.154 283.619 405.964 269.107H454.403C456.972 269.107 459.435 268.086 461.251 266.27C463.068 264.454 464.088 261.99 464.088 259.422V224.478C464.088 221.915 463.072 219.456 461.262 217.641C459.452 215.825 456.997 214.801 454.433 214.793Z" fill="#263238" stroke="#263238" stroke-linecap="round" stroke-linejoin="round"/>
<path d="M410.537 240.71C410.54 239.721 410.249 238.754 409.702 237.931C409.155 237.108 408.375 236.465 407.462 236.086C406.55 235.706 405.545 235.606 404.575 235.798C403.605 235.99 402.714 236.466 402.015 237.165C401.316 237.864 400.841 238.755 400.649 239.725C400.456 240.694 400.557 241.699 400.936 242.612C401.316 243.525 401.958 244.304 402.781 244.852C403.604 245.399 404.572 245.69 405.56 245.687C406.879 245.683 408.143 245.157 409.075 244.225C410.008 243.292 410.533 242.028 410.537 240.71Z" fill="#92E3A9" stroke="#263238" stroke-linecap="round" stroke-linejoin="round"/>
<path d="M427.471 240.71C427.471 239.725 427.179 238.763 426.632 237.945C426.085 237.126 425.308 236.488 424.398 236.112C423.489 235.735 422.488 235.636 421.523 235.828C420.557 236.02 419.671 236.494 418.975 237.19C418.279 237.886 417.805 238.773 417.613 239.739C417.42 240.704 417.519 241.705 417.896 242.614C418.272 243.524 418.91 244.301 419.729 244.848C420.547 245.395 421.51 245.687 422.494 245.687C423.813 245.683 425.076 245.157 426.009 244.225C426.941 243.292 427.467 242.028 427.471 240.71Z" fill="#92E3A9" stroke="#263238" stroke-linecap="round" stroke-linejoin="round"/>
<path d="M444.419 240.709C444.422 239.722 444.132 238.755 443.585 237.932C443.039 237.109 442.26 236.467 441.348 236.087C440.436 235.707 439.432 235.606 438.463 235.797C437.494 235.988 436.603 236.462 435.903 237.159C435.203 237.857 434.727 238.746 434.533 239.715C434.339 240.684 434.437 241.688 434.814 242.601C435.192 243.514 435.831 244.295 436.653 244.844C437.474 245.393 438.44 245.686 439.428 245.686C440.748 245.683 442.013 245.157 442.948 244.225C443.883 243.293 444.412 242.03 444.419 240.709Z" fill="#92E3A9" stroke="#263238" stroke-linecap="round" stroke-linejoin="round"/>
<path d="M95.18 21.6934H202.79C205.351 21.6934 207.807 22.7106 209.617 24.5212C211.428 26.3319 212.445 28.7877 212.445 31.3484V105.943H85.5699V31.3484C85.5699 28.7955 86.5809 26.3464 88.3819 24.5371C90.1829 22.7277 92.6272 21.7052 95.18 21.6934Z" fill="#92E3A9" stroke="#263238" stroke-linecap="round" stroke-linejoin="round"/>
<path d="M212.385 93.9116H85.5699V105.898H212.385V93.9116Z" fill="#263238" stroke="#263238" stroke-linecap="round" stroke-linejoin="round"/>
<path d="M206.586 98.0066H91.3838V101.803H206.586V98.0066Z" fill="white" stroke="#263238" stroke-linecap="round" stroke-linejoin="round"/>
<path d="M148.985 77.4412C158.659 77.4412 166.502 69.5988 166.502 59.9247C166.502 50.2506 158.659 42.4082 148.985 42.4082C139.311 42.4082 131.469 50.2506 131.469 59.9247C131.469 69.5988 139.311 77.4412 148.985 77.4412Z" fill="#263238" stroke="#263238" stroke-linecap="round" stroke-linejoin="round"/>
<path d="M141.079 49.0291L159.985 59.9395L141.079 70.85V49.0291Z" fill="white" stroke="#263238" stroke-linecap="round" stroke-linejoin="round"/>
<path d="M157.534 136.582H37.1752C34.8475 136.582 32.9605 138.469 32.9605 140.796V186.665C32.9605 188.993 34.8475 190.88 37.1752 190.88H157.534C159.862 190.88 161.749 188.993 161.749 186.665V140.796C161.749 138.469 159.862 136.582 157.534 136.582Z" fill="#263238" stroke="#263238" stroke-linecap="round" stroke-linejoin="round"/>
<path d="M48.295 143.98L48.9227 145.027C46.083 146.611 43.4376 149.391 43.4376 152.649C43.4012 153.209 43.4769 153.77 43.6603 154.3C43.8437 154.83 44.131 155.318 44.5054 155.736C44.8799 156.153 45.3339 156.492 45.8409 156.732C46.3479 156.972 46.8977 157.108 47.458 157.133C47.8765 157.133 48.1604 156.924 48.1604 156.505C48.1604 156.087 47.9512 155.952 47.5327 155.877C46.9684 155.724 46.4767 155.376 46.1455 154.894C45.8142 154.412 45.665 153.829 45.7243 153.247C45.7352 152.783 45.8403 152.326 46.0334 151.904C46.2264 151.482 46.5033 151.103 46.8472 150.791C47.1912 150.48 47.5949 150.241 48.0339 150.09C48.4729 149.939 48.938 149.879 49.401 149.914C49.9045 149.916 50.4026 150.018 50.8658 150.216C51.329 150.414 51.7479 150.702 52.0976 151.064C52.4474 151.427 52.7209 151.855 52.9021 152.325C53.0832 152.795 53.1683 153.297 53.1524 153.8C53.145 154.432 53.0103 155.057 52.7563 155.636C52.5022 156.216 52.134 156.738 51.6737 157.172C51.2133 157.605 50.6702 157.942 50.0769 158.161C49.4835 158.381 48.8521 158.478 48.2202 158.448C47.4347 158.499 46.6472 158.384 45.9089 158.111C45.1705 157.838 44.4977 157.413 43.9341 156.864C43.3705 156.314 42.9286 155.652 42.6371 154.921C42.3456 154.19 42.2109 153.406 42.2419 152.619C42.1971 148.838 45.1115 145.789 48.295 143.98ZM61.1334 143.98L61.7612 145.027C58.9065 146.611 56.276 149.391 56.276 152.649C56.2376 153.209 56.3119 153.771 56.4945 154.302C56.6771 154.833 56.9643 155.322 57.3391 155.74C57.7139 156.158 58.1688 156.497 58.6767 156.736C59.1847 156.975 59.7355 157.11 60.2965 157.133C60.715 157.133 60.9989 156.924 60.9989 156.505C60.9989 156.087 60.7897 155.952 60.3712 155.877C59.8069 155.724 59.3152 155.376 58.9839 154.894C58.6527 154.412 58.5034 153.829 58.5627 153.247C58.5715 152.782 58.6752 152.324 58.8675 151.901C59.0599 151.478 59.3368 151.098 59.6811 150.786C60.0255 150.474 60.4301 150.236 60.8701 150.086C61.3101 149.936 61.7761 149.877 62.2394 149.914C62.743 149.916 63.2411 150.018 63.7043 150.216C64.1675 150.414 64.5863 150.702 64.9361 151.064C65.2858 151.427 65.5594 151.855 65.7405 152.325C65.9217 152.795 66.0068 153.297 65.9908 153.8C65.9815 154.432 65.8454 155.055 65.5906 155.634C65.3358 156.212 64.9676 156.733 64.5076 157.167C64.0477 157.6 63.5055 157.937 62.9131 158.157C62.3206 158.377 61.6901 158.476 61.0587 158.448C60.2737 158.497 59.4873 158.38 58.75 158.106C58.0127 157.833 57.3408 157.408 56.7777 156.859C56.2146 156.31 55.7726 155.649 55.4803 154.919C55.188 154.188 55.0518 153.405 55.0804 152.619C55.0206 148.838 57.935 145.789 61.1334 143.98Z" fill="#92E3A9"/>
<path d="M73.4189 155.04H146.713" stroke="white" stroke-linecap="round" stroke-linejoin="round"/>
<path d="M73.4189 161.332H146.713" stroke="white" stroke-linecap="round" stroke-linejoin="round"/>
<path d="M73.4189 167.624H146.713" stroke="white" stroke-linecap="round" stroke-linejoin="round"/>
<path d="M73.4189 173.932H146.713" stroke="white" stroke-linecap="round" stroke-linejoin="round"/>
<path d="M133.745 275.069C148.873 272.6 159.135 258.335 156.666 243.207C154.197 228.078 139.932 217.816 124.803 220.285C109.675 222.755 99.4131 237.02 101.882 252.148C104.352 267.276 118.617 277.539 133.745 275.069Z" fill="#263238" stroke="#263238" stroke-linecap="round" stroke-linejoin="round"/>
<path d="M146.878 263.163C155.414 253.445 154.454 238.647 144.735 230.112C135.016 221.577 120.219 222.536 111.684 232.255C103.148 241.974 104.108 256.771 113.827 265.307C123.545 273.842 138.343 272.882 146.878 263.163Z" fill="white" stroke="#263238" stroke-linecap="round" stroke-linejoin="round"/>
<path d="M129.286 230.741V247.674H140.735" stroke="#263238" stroke-width="2" stroke-linecap="round" stroke-linejoin="round"/>
<path d="M302.927 247.734C302.927 247.734 318.844 281.706 318.844 283.499C318.844 285.293 304.721 292.975 302.03 294.589C299.944 295.778 297.793 296.851 295.589 297.803L297.203 313.541C297.203 313.541 321.52 307.996 331.713 302.451C341.906 296.906 341.547 290.644 339.186 281.347C336.824 272.051 321.116 236.121 321.116 236.121L302.927 247.734Z" fill="white"/>
<mask id="mask0_22_331" style="mask-type:luminance" maskUnits="userSpaceOnUse" x="295" y="236" width="46" height="78">
<path d="M302.927 247.734C302.927 247.734 318.844 281.706 318.844 283.499C318.844 285.293 304.721 292.975 302.03 294.589C299.944 295.778 297.793 296.851 295.589 297.803L297.203 313.541C297.203 313.541 321.52 307.996 331.713 302.451C341.906 296.906 341.547 290.644 339.186 281.347C336.824 272.051 321.116 236.121 321.116 236.121L302.927 247.734Z" fill="white"/>
</mask>
<g mask="url(#mask0_22_331)">
<g style="mix-blend-mode:multiply" opacity="0.5">
<path d="M331.668 302.451C341.861 296.906 341.502 290.644 339.141 281.347C336.779 272.051 321.071 236.121 321.071 236.121L318.531 237.735L317.724 239.23C317.724 239.23 332.385 275.219 333.267 287.206C333.865 295.262 317.649 305.305 306.933 311.045C314.884 308.937 325.705 305.694 331.668 302.451Z" fill="#92E3A9"/>
</g>
</g>
<path d="M302.927 247.734C302.927 247.734 318.844 281.706 318.844 283.499C318.844 285.293 304.721 292.975 302.03 294.589C299.944 295.778 297.793 296.851 295.589 297.803L297.203 313.541C297.203 313.541 321.52 307.996 331.713 302.451C341.906 296.906 341.547 290.644 339.186 281.347C336.824 272.051 321.116 236.121 321.116 236.121L302.927 247.734Z" stroke="#263238" stroke-linecap="round" stroke-linejoin="round"/>
<path d="M188.083 240.231C188.083 240.231 176.47 282.782 176.127 290.3C175.783 297.818 199.188 312.644 200.04 313.541C200.892 314.437 198.71 287.684 198.71 287.684L206.646 248.825L188.083 240.231Z" fill="white"/>
<mask id="mask1_22_331" style="mask-type:luminance" maskUnits="userSpaceOnUse" x="176" y="240" width="31" height="74">
<path d="M188.083 240.231C188.083 240.231 176.47 282.782 176.127 290.3C175.783 297.818 199.188 312.644 200.04 313.541C200.892 314.437 198.71 287.684 198.71 287.684L206.646 248.825L188.083 240.231Z" fill="white"/>
</mask>
<g mask="url(#mask1_22_331)">
<g style="mix-blend-mode:multiply" opacity="0.5">
<path d="M193.404 243.714L193.15 242.563L188.083 240.231C188.083 240.231 176.47 282.782 176.127 290.3C175.783 297.818 199.188 312.644 200.04 313.541C200.384 313.899 200.249 309.894 199.965 304.947C193.001 299.043 183.002 290.733 181.836 287.236" fill="#92E3A9"/>
</g>
</g>
<path d="M188.083 240.231C188.083 240.231 176.47 282.782 176.127 290.3C175.783 297.818 199.188 312.644 200.04 313.541C200.892 314.437 198.71 287.684 198.71 287.684L206.646 248.825L188.083 240.231Z" stroke="#263238" stroke-linecap="round" stroke-linejoin="round"/>
<path d="M242.621 197.486C242.621 197.486 238.137 200.714 229.394 201.073C220.65 201.432 220.232 195.095 209.366 195.095C196.199 195.095 179.684 236.749 179.684 236.749C179.684 236.749 187.904 244.804 195.96 248.197C200.416 250.149 205.101 251.53 209.904 252.307L211.16 279.673H299.848L300.909 252.307L328.634 234.327C328.634 234.327 315.033 210.011 308.427 200.894C301.821 191.777 290.716 195.169 287.324 197.486C283.931 199.803 273.872 200.356 270.166 199.817C265.33 198.747 260.552 197.435 255.848 195.887C255.848 195.887 250.138 191.134 242.621 197.486Z" fill="#92E3A9" stroke="#263238" stroke-linecap="round" stroke-linejoin="round"/>
<path d="M210.801 207.141L210.442 252.562" stroke="#263238" stroke-width="0.5" stroke-linecap="round" stroke-linejoin="round"/>
<path d="M214.014 211.266C214.014 211.266 215.27 233.431 219.993 245.776" stroke="#263238" stroke-width="0.5" stroke-linecap="round" stroke-linejoin="round"/>
<path d="M220.815 247.555C221.835 250.568 223.089 253.496 224.566 256.313" stroke="#263238" stroke-width="0.5" stroke-linecap="round" stroke-linejoin="round"/>
<path d="M216.869 208.755C218.566 216.815 220.961 224.711 224.028 232.355" stroke="#263238" stroke-width="0.5" stroke-linecap="round" stroke-linejoin="round"/>
<path d="M293.96 212.686C293.96 212.686 289.67 230.218 285.904 238.094" stroke="#263238" stroke-width="0.5" stroke-linecap="round" stroke-linejoin="round"/>
<path d="M300.91 252.382L300.73 216.976" stroke="#263238" stroke-width="0.5" stroke-linecap="round" stroke-linejoin="round"/>
<path d="M298.952 217.693C298.952 217.693 295.723 240.112 287.862 251.845" stroke="#263238" stroke-width="0.5" stroke-linecap="round" stroke-linejoin="round"/>
<path d="M295.021 247.375C295.021 247.375 291.434 254.176 288.938 257.748" stroke="#263238" stroke-width="0.5" stroke-linecap="round" stroke-linejoin="round"/>
<path d="M237.614 200.176C237.614 200.176 240.125 215.556 243.697 223.417C247.269 231.279 253.531 232.893 258.897 230.576C264.262 228.259 268.193 216.796 267.864 202.179" stroke="#263238" stroke-width="0.5" stroke-linecap="round" stroke-linejoin="round"/>
<path d="M224.925 167.983C224.925 167.983 221.517 162.094 218.842 165.128C216.167 168.162 220.994 175.142 223.669 177.458C226.345 179.775 228.318 178.355 228.153 175.859C227.989 173.363 224.925 167.983 224.925 167.983Z" fill="#92E3A9" stroke="#263238" stroke-linecap="round" stroke-linejoin="round"/>
<path opacity="0.5" d="M224.925 167.983C224.925 167.983 221.517 162.094 218.842 165.128C216.167 168.162 220.994 175.142 223.669 177.458C226.345 179.775 228.318 178.355 228.153 175.859C227.989 173.363 224.925 167.983 224.925 167.983Z" fill="white"/>
<path d="M224.925 167.983C224.925 167.983 221.517 162.094 218.842 165.128C216.167 168.162 220.994 175.142 223.669 177.458C226.345 179.775 228.318 178.355 228.153 175.859C227.989 173.363 224.925 167.983 224.925 167.983Z" stroke="#263238" stroke-linecap="round" stroke-linejoin="round"/>
<path d="M279.014 167.983C279.014 167.983 282.407 162.094 285.097 165.128C287.787 168.162 282.945 175.142 280.269 177.458C277.594 179.775 275.606 178.355 275.786 175.859C275.965 173.363 279.014 167.983 279.014 167.983Z" fill="#92E3A9" stroke="#263238" stroke-linecap="round" stroke-linejoin="round"/>
<path opacity="0.5" d="M279.014 167.983C279.014 167.983 282.407 162.094 285.097 165.128C287.787 168.162 282.945 175.142 280.269 177.458C277.594 179.775 275.606 178.355 275.786 175.859C275.965 173.363 279.014 167.983 279.014 167.983Z" fill="white"/>
<path d="M279.014 167.983C279.014 167.983 282.407 162.094 285.097 165.128C287.787 168.162 282.945 175.142 280.269 177.458C277.594 179.775 275.606 178.355 275.786 175.859C275.965 173.363 279.014 167.983 279.014 167.983Z" stroke="#263238" stroke-linecap="round" stroke-linejoin="round"/>
<path d="M241.007 196.246C242.695 203.877 244.846 211.399 247.448 218.769C250.677 226.81 256.745 226.81 259.255 221.624C261.766 216.437 263.366 197.112 263.366 197.112C263.366 197.112 246.551 199.459 241.007 196.246Z" fill="white" stroke="#263238" stroke-linecap="round" stroke-linejoin="round"/>
<path d="M225.283 169.956C225.283 169.956 229.932 186.397 238.735 196.067C247.538 205.737 250.691 208.023 255.369 207.321C260.047 206.618 265.024 200.535 271.989 187.891C278.954 175.247 279.462 165.547 280.045 164.65C280.628 163.754 278.55 145.878 268.597 138.181C258.643 130.484 247.493 127.106 237.838 135.506C228.183 143.906 222.055 157.611 225.283 169.956Z" fill="white"/>
<mask id="mask2_22_331" style="mask-type:luminance" maskUnits="userSpaceOnUse" x="224" y="130" width="57" height="78">
<path d="M225.283 169.956C225.283 169.956 229.932 186.397 238.735 196.067C247.538 205.737 250.691 208.023 255.369 207.321C260.047 206.618 265.024 200.535 271.989 187.891C278.954 175.247 279.462 165.547 280.045 164.65C280.628 163.754 278.55 145.878 268.597 138.181C258.643 130.484 247.493 127.106 237.838 135.506C228.183 143.906 222.055 157.611 225.283 169.956Z" fill="white"/>
</mask>
<g mask="url(#mask2_22_331)">
<g style="mix-blend-mode:multiply" opacity="0.5">
<path d="M268.552 138.121C258.538 130.439 247.448 127.046 237.793 135.446C228.138 143.845 222.055 157.61 225.284 169.956C225.284 169.956 226.165 173.124 227.914 177.429C227.909 176.877 227.984 176.329 228.138 175.799C230.275 169.029 236.583 155.921 257.806 161.93C274.665 166.682 272.602 181.509 271.033 189.415L271.944 187.771C278.924 175.082 279.417 165.427 280 164.53C280.583 163.634 278.565 145.818 268.552 138.121Z" fill="#92E3A9"/>
</g>
</g>
<path d="M225.283 169.956C225.283 169.956 229.932 186.397 238.735 196.067C247.538 205.737 250.691 208.023 255.369 207.321C260.047 206.618 265.024 200.535 271.989 187.891C278.954 175.247 279.462 165.547 280.045 164.65C280.628 163.754 278.55 145.878 268.597 138.181C258.643 130.484 247.493 127.106 237.838 135.506C228.183 143.906 222.055 157.611 225.283 169.956Z" stroke="#263238" stroke-linecap="round" stroke-linejoin="round"/>
<path d="M255.325 178.535C254.77 182.026 254.471 185.552 254.428 189.086C254.607 192.658 255.683 193.735 254.069 194.093C252.455 194.452 250.677 191.941 250.677 191.941" stroke="#263238" stroke-linecap="round" stroke-linejoin="round"/>
<path d="M237.435 181.404C238.471 182.153 239.709 182.57 240.986 182.602C242.264 182.634 243.521 182.279 244.594 181.584" stroke="#263238" stroke-linecap="round" stroke-linejoin="round"/>
<path d="M260.152 181.404C261.186 182.151 262.422 182.568 263.697 182.6C264.972 182.632 266.226 182.278 267.296 181.584" stroke="#263238" stroke-linecap="round" stroke-linejoin="round"/>
<path d="M248.853 175.381C248.853 175.381 245.446 166.966 234.191 170.897" stroke="#263238" stroke-linecap="round" stroke-linejoin="round"/>
<path d="M258.224 174.35C258.224 174.35 261.079 166.115 271.272 170.942" stroke="#263238" stroke-linecap="round" stroke-linejoin="round"/>
<path d="M251.02 182.017C251.02 186.62 245.744 190.342 239.228 190.342C232.712 190.342 227.421 186.62 227.421 182.017C227.421 177.414 232.353 175.501 238.869 175.501C245.386 175.501 251.02 177.429 251.02 182.017Z" stroke="#263238" stroke-linecap="round" stroke-linejoin="round"/>
<path d="M278.207 182.017C278.207 186.62 272.916 190.342 266.4 190.342C259.883 190.342 254.607 186.62 254.607 182.017C254.607 177.414 259.524 175.501 266.041 175.501C272.557 175.501 278.207 177.429 278.207 182.017Z" stroke="#263238" stroke-linecap="round" stroke-linejoin="round"/>
<path d="M127.508 325.392L126.776 506.581C126.776 507.152 127.002 507.699 127.406 508.103C127.809 508.506 128.357 508.733 128.928 508.733C129.484 508.733 130.019 508.516 130.418 508.128C130.817 507.74 131.049 507.212 131.065 506.655L136.236 325.646L127.508 325.392Z" fill="white" stroke="#263238" stroke-linecap="round" stroke-linejoin="round"/>
<path d="M115.312 367.749L114.61 555.065C114.608 555.348 114.662 555.629 114.769 555.891C114.877 556.153 115.035 556.391 115.235 556.591C115.436 556.792 115.674 556.95 115.936 557.058C116.198 557.165 116.479 557.219 116.762 557.217C117.317 557.218 117.852 557.003 118.253 556.619C118.654 556.235 118.891 555.71 118.914 555.155L124.07 367.988L115.312 367.749Z" fill="white" stroke="#263238" stroke-linecap="round" stroke-linejoin="round"/>
<path d="M378 325.392L378.733 506.581C378.734 506.863 378.681 507.142 378.574 507.403C378.468 507.664 378.311 507.902 378.112 508.102C377.913 508.302 377.677 508.46 377.417 508.569C377.156 508.677 376.877 508.733 376.595 508.733C376.037 508.733 375.501 508.517 375.099 508.129C374.698 507.742 374.462 507.213 374.443 506.655L369.287 325.646L378 325.392Z" fill="white" stroke="#263238" stroke-linecap="round" stroke-linejoin="round"/>
<path d="M390.211 367.749L390.943 555.065C390.945 555.348 390.891 555.629 390.783 555.891C390.676 556.153 390.518 556.391 390.317 556.591C390.117 556.792 389.879 556.95 389.617 557.058C389.355 557.165 389.074 557.219 388.791 557.217C388.237 557.218 387.704 557.003 387.306 556.618C386.907 556.233 386.673 555.709 386.654 555.155L381.483 367.988L390.211 367.749Z" fill="white" stroke="#263238" stroke-linecap="round" stroke-linejoin="round"/>
<path d="M200.234 375.536L199.801 541.794C199.754 542.208 199.869 542.625 200.122 542.957C200.376 543.289 200.748 543.509 201.161 543.572C201.564 543.516 201.93 543.309 202.186 542.992C202.441 542.676 202.566 542.274 202.536 541.868L205.779 375.73L200.234 375.536Z" fill="white" stroke="#263238" stroke-linecap="round" stroke-linejoin="round"/>
<path d="M305.468 370.185L305.871 515.279C305.906 515.63 305.804 515.981 305.587 516.26C305.37 516.538 305.055 516.722 304.706 516.774C304.358 516.722 304.044 516.537 303.829 516.259C303.615 515.98 303.516 515.629 303.555 515.279L300.79 370.305L305.468 370.185Z" fill="white" stroke="#263238" stroke-linecap="round" stroke-linejoin="round"/>
<path d="M198.605 370.185L199.009 515.279C199.043 515.63 198.942 515.981 198.725 516.26C198.508 516.538 198.192 516.722 197.843 516.774C197.495 516.722 197.181 516.537 196.966 516.259C196.752 515.98 196.654 515.629 196.692 515.279L193.927 370.305L198.605 370.185Z" fill="white" stroke="#263238" stroke-linecap="round" stroke-linejoin="round"/>
<path d="M302.464 375.536L302.927 541.794C302.974 542.208 302.859 542.625 302.606 542.957C302.352 543.289 301.98 543.509 301.567 543.572C301.166 543.513 300.801 543.305 300.547 542.989C300.292 542.673 300.165 542.273 300.192 541.868L296.949 375.73L302.464 375.536Z" fill="white" stroke="#263238" stroke-linecap="round" stroke-linejoin="round"/>
<path d="M250.617 387.179C287.349 387.179 317.126 380.374 317.126 371.979C317.126 363.584 287.349 356.779 250.617 356.779C213.885 356.779 184.108 363.584 184.108 371.979C184.108 380.374 213.885 387.179 250.617 387.179Z" fill="white" stroke="#263238" stroke-linecap="round" stroke-linejoin="round"/>
<path d="M218.229 501.006C218.229 501.006 214.747 505.998 217.243 508.479C219.739 510.96 222.22 509.974 221.966 512.47C221.711 514.966 217.736 523.425 214.254 532.392C210.771 541.36 217.99 550.328 224.716 547.846C231.441 545.365 230.694 520.436 231.68 515.952C232.667 511.468 233.429 510.721 233.175 506.491C232.921 502.262 232.682 497.778 229.438 497.27C226.195 496.762 219.724 499.272 218.229 501.006Z" fill="white" stroke="#263238" stroke-linecap="round" stroke-linejoin="round"/>
<path d="M228.915 540.971C224.432 539.268 217.557 539.611 213.686 540C214.986 545.634 219.963 549.595 224.716 547.846C226.703 547.114 228.004 544.454 228.915 540.971Z" fill="#92E3A9" stroke="#263238" stroke-linecap="round" stroke-linejoin="round"/>
<path d="M210.517 490.051C210.517 490.051 217.736 502.261 219.724 505.49C221.712 508.718 228.452 507.732 229.199 503.248C229.947 498.764 226.449 486.314 226.449 486.314L211.504 490.051H210.517Z" fill="white" stroke="#263238" stroke-linecap="round" stroke-linejoin="round"/>
<path d="M193.329 470.621C193.329 470.621 191.327 473.864 192.328 476.106C193.329 478.348 196.064 484.82 197.813 488.063C199.562 491.306 207.528 493.294 216.734 491.799C225.941 490.305 231.187 486.06 231.441 482.324C231.695 478.587 229.947 473.61 228.691 467.632C227.436 461.654 224.207 461.908 219.724 461.908C215.24 461.908 197.066 467.139 193.329 470.621Z" fill="#92E3A9" stroke="#263238" stroke-linecap="round" stroke-linejoin="round"/>
<path d="M220.232 397.387C220.366 391.259 223.909 388.24 224.178 384.04C224.599 378.488 224.14 372.904 222.817 367.495L216.002 358.184C196.393 358.438 182.344 358.766 182.12 358.841C181.373 359.08 180.865 363.325 180.371 366.807C180.371 366.807 172.046 367.869 173.541 391.035C173.75 394.263 182.15 431.613 182.763 435.872C186.499 461.893 194.824 474.926 194.824 474.926C194.824 474.926 195.571 478.169 205.286 477.421C215.001 476.674 224.716 470.203 224.716 470.203C224.716 470.203 219.724 419.551 220.232 397.387Z" fill="#263238" stroke="#263238" stroke-linecap="round" stroke-linejoin="round"/>
<path d="M179.026 363.011C179.026 363.011 168.728 364.506 162.421 371.71C156.114 378.914 161.465 383.667 173.72 382.381C185.976 381.096 200.115 368.556 200.713 367.884C201.31 367.211 187.934 358.692 179.026 363.011Z" fill="white" stroke="#263238" stroke-linecap="round" stroke-linejoin="round"/>
<path d="M197.305 367.495C203.866 367.832 210.376 368.834 216.735 370.484C225.209 372.98 240.155 377.957 243.637 377.957C247.119 377.957 246.133 364.999 246.133 362.518C246.133 360.037 201.295 358.527 195.81 358.527C190.325 358.527 197.305 367.495 197.305 367.495Z" fill="white" stroke="#263238" stroke-linecap="round" stroke-linejoin="round"/>
<path d="M246.133 362.518C246.133 362.518 242.142 364.506 240.648 371.979C239.153 379.452 237.165 383.442 240.155 385.43C243.144 387.418 256.102 388.912 258.09 386.924C260.077 384.937 265.563 374.968 266.564 368.496C267.565 362.025 246.133 362.518 246.133 362.518Z" fill="#92E3A9" stroke="#263238" stroke-linecap="round" stroke-linejoin="round"/>
<path d="M263.067 364.999C260.75 367.658 258.9 370.69 257.596 373.967C256.54 377.397 255.706 380.891 255.1 384.429C259.869 385.736 264.53 387.405 269.045 389.421C277.026 392.903 290.477 395.399 303.42 398.388C316.363 401.377 319.861 404.367 324.345 404.367C328.828 404.367 334.313 400.869 341.293 392.41C348.273 383.951 342.28 366.001 335.315 360.515C328.35 355.03 290.971 350.562 285.994 352.056C281.017 353.551 263.067 364.999 263.067 364.999Z" fill="#263238" stroke="#263238" stroke-linecap="round" stroke-linejoin="round"/>
<path d="M169.595 382.516C168.611 378.044 166.617 373.857 163.766 370.275C163.303 370.708 162.855 371.157 162.421 371.65C156.876 377.957 160.344 382.441 169.595 382.516Z" fill="#92E3A9" stroke="#263238" stroke-linecap="round" stroke-linejoin="round"/>
<path d="M219.47 386.461C219.47 386.461 214.328 441.477 203.836 450.041" stroke="white" stroke-width="0.5" stroke-linecap="round" stroke-linejoin="round"/>
<path d="M215.838 438.682C215.838 438.682 211.758 456.617 201.056 463.746" stroke="white" stroke-width="0.5" stroke-linecap="round" stroke-linejoin="round"/>
<path d="M282.003 376.462C282.003 376.462 266.056 377.464 276.518 384.428C286.98 391.393 305.916 395.892 305.916 395.892" stroke="white" stroke-width="0.5" stroke-linecap="round" stroke-linejoin="round"/>
<path d="M397.773 357.616L392.393 352.773L379.958 325.871C379.368 324.647 378.442 323.616 377.288 322.899C376.134 322.182 374.8 321.808 373.442 321.82H131.917C130.556 321.805 129.218 322.177 128.062 322.895C126.905 323.612 125.977 324.644 125.386 325.871L109.887 359.379L107.331 358.438V366.105L107.451 366.015C107.603 367.038 108.122 367.971 108.911 368.639C109.701 369.307 110.706 369.666 111.74 369.647H393.604C394.693 369.672 395.749 369.273 396.549 368.534C397.349 367.795 397.831 366.774 397.893 365.686L397.773 357.616Z" fill="#263238" stroke="#263238" stroke-linecap="round" stroke-linejoin="round"/>
<path d="M393.604 362.637H111.74C111.042 362.665 110.348 362.515 109.724 362.202C109.1 361.888 108.566 361.421 108.171 360.844C107.777 360.268 107.535 359.6 107.47 358.905C107.404 358.21 107.515 357.509 107.794 356.868L125.386 318.861C125.974 317.633 126.901 316.598 128.059 315.88C129.216 315.163 130.555 314.791 131.917 314.811H373.442C374.801 314.794 376.137 315.167 377.291 315.885C378.446 316.602 379.371 317.635 379.958 318.861L397.549 356.868C397.828 357.509 397.94 358.21 397.874 358.905C397.808 359.6 397.567 360.268 397.172 360.844C396.778 361.421 396.244 361.888 395.619 362.202C394.995 362.515 394.302 362.665 393.604 362.637Z" fill="white" stroke="#263238" stroke-linecap="round" stroke-linejoin="round"/>
<g style="mix-blend-mode:multiply" opacity="0.5">
<path d="M126.013 337.11C126.013 337.11 119.631 341.489 123.622 343.088C127.612 344.687 173.481 343.492 179.071 341.893C184.661 340.293 191.028 325.542 191.028 323.151C191.028 320.759 182.987 319.04 180.028 318.906C177.068 318.771 137.97 321.148 137.97 321.148L126.013 337.11Z" fill="#92E3A9"/>
</g>
<g style="mix-blend-mode:multiply" opacity="0.5">
<path d="M354.176 344.687C363.207 344.687 370.527 341.649 370.527 337.902C370.527 334.154 363.207 331.116 354.176 331.116C345.146 331.116 337.826 334.154 337.826 337.902C337.826 341.649 345.146 344.687 354.176 344.687Z" fill="#92E3A9"/>
</g>
<g style="mix-blend-mode:multiply" opacity="0.5">
<path d="M250.079 353.072C282.461 353.072 308.711 348.161 308.711 342.102C308.711 336.043 282.461 331.132 250.079 331.132C217.697 331.132 191.446 336.043 191.446 342.102C191.446 348.161 217.697 353.072 250.079 353.072Z" fill="#92E3A9"/>
</g>
<path d="M342.22 311.209C342.22 311.209 341.144 306.92 337.572 308.354C334 309.789 334.358 319.265 335.061 324.63C335.763 329.996 340.606 327.485 340.606 327.485V324.272C340.606 324.272 338.827 325.692 337.93 323.734C337.034 321.776 337.213 311.927 338.11 312.106C339.006 312.285 340.785 315.319 340.785 315.319C340.785 315.319 341.323 314.975 342.22 311.209Z" fill="#92E3A9" stroke="#263238" stroke-linecap="round" stroke-linejoin="round"/>
<path d="M339.649 311.926V335.421C339.649 338.186 346.001 340.428 353.848 340.428C361.694 340.428 368.031 338.186 368.031 335.421V311.926H339.649Z" fill="#92E3A9" stroke="#263238" stroke-linecap="round" stroke-linejoin="round"/>
<path d="M368.031 311.926C368.031 314.317 361.679 316.245 353.848 316.245C346.016 316.245 339.649 314.317 339.649 311.926C339.649 309.534 346.001 307.606 353.848 307.606C361.694 307.606 368.031 309.549 368.031 311.926Z" fill="white" stroke="#263238" stroke-linecap="round" stroke-linejoin="round"/>
<path d="M366.178 311.926C366.178 314.004 360.648 315.678 353.848 315.678C347.047 315.678 341.502 314.004 341.502 311.926C341.502 309.849 347.032 308.175 353.848 308.175C360.663 308.175 366.178 309.849 366.178 311.926Z" fill="white" stroke="#263238" stroke-linecap="round" stroke-linejoin="round"/>
<path d="M344.327 314.318C350.54 316.131 357.141 316.131 363.353 314.318C357.141 312.505 350.54 312.505 344.327 314.318Z" fill="#263238" stroke="#263238" stroke-linecap="round" stroke-linejoin="round"/>
<path d="M124.25 322.657L124.429 330.698L178.608 331.236V321.94L124.25 322.657Z" fill="white" stroke="#263238" stroke-linecap="round" stroke-linejoin="round"/>
<path d="M178.608 331.237L186.484 314.258V309.251L178.249 323.554L178.608 331.237Z" fill="white" stroke="#263238" stroke-linecap="round" stroke-linejoin="round"/>
<path d="M124.25 329.981L124.429 338.037L178.608 338.575V329.279L124.25 329.981Z" fill="white" stroke="#263238" stroke-linecap="round" stroke-linejoin="round"/>
<path d="M178.608 338.575L186.484 321.581V316.574L178.249 330.878L178.608 338.575Z" fill="white" stroke="#263238" stroke-linecap="round" stroke-linejoin="round"/>
<path d="M145.174 302.271C145.174 302.271 146.429 299.775 144.636 298.699C142.842 297.623 140.884 300.194 139.808 301.016C138.732 301.838 116.209 316.754 115.491 319.085C114.774 321.417 115.491 326.558 120.319 327.126C125.146 327.694 129.436 324.451 131.588 323.913C133.74 323.375 134.577 323.195 134.577 323.195L149.418 303.168L145.174 302.271Z" fill="white" stroke="#263238" stroke-linecap="round" stroke-linejoin="round"/>
<path d="M120.319 327.141C125.146 327.679 129.436 324.466 131.588 323.928C133.74 323.39 134.577 323.21 134.577 323.21L135.115 322.478L121.171 319.638C120.413 318.924 119.438 318.483 118.401 318.386C117.364 318.289 116.324 318.54 115.447 319.1C114.774 321.402 115.491 326.588 120.319 327.141Z" fill="white" stroke="#263238" stroke-linecap="round" stroke-linejoin="round"/>
<path d="M121.216 319.668H163.064C176.127 319.668 180.057 318.951 180.057 318.951L188.098 302.316C188.098 302.316 162.69 303.93 154.844 303.392C151.601 303.299 148.372 302.939 145.189 302.316L121.216 319.668Z" fill="white" stroke="#263238" stroke-linecap="round" stroke-linejoin="round"/>
<path d="M121.216 319.668L121.933 322.881C121.933 322.881 155.905 323.061 164.843 323.061C173.78 323.061 180.581 323.42 180.581 323.42L180.043 318.936L121.216 319.668Z" fill="white" stroke="#263238" stroke-linecap="round" stroke-linejoin="round"/>
<path d="M180.581 323.375L188.083 306.202V302.271L180.043 318.906L180.581 323.375Z" fill="white" stroke="#263238" stroke-linecap="round" stroke-linejoin="round"/>
<path d="M301.283 343.462H198.829C198.602 343.464 198.377 343.421 198.167 343.335C197.957 343.25 197.766 343.123 197.604 342.964C197.443 342.804 197.315 342.614 197.228 342.404C197.141 342.195 197.096 341.97 197.096 341.743C197.096 341.516 197.141 341.291 197.228 341.082C197.315 340.872 197.443 340.682 197.604 340.522C197.766 340.363 197.957 340.236 198.167 340.151C198.377 340.065 198.602 340.022 198.829 340.024H301.283C301.509 340.022 301.734 340.065 301.943 340.151C302.153 340.237 302.343 340.363 302.503 340.523C302.663 340.683 302.789 340.873 302.875 341.083C302.961 341.292 303.004 341.517 303.002 341.743C303.004 341.969 302.961 342.194 302.875 342.403C302.789 342.613 302.663 342.803 302.503 342.963C302.343 343.123 302.153 343.249 301.943 343.335C301.734 343.421 301.509 343.464 301.283 343.462Z" fill="white" stroke="#263238" stroke-linecap="round" stroke-linejoin="round"/>
<path d="M302.15 339.994H197.948C197.566 339.995 197.199 339.85 196.921 339.589C196.643 339.328 196.476 338.97 196.453 338.589L190.789 270.511C190.763 270.3 190.783 270.087 190.846 269.884C190.91 269.681 191.016 269.495 191.157 269.336C191.299 269.178 191.472 269.051 191.666 268.965C191.861 268.879 192.071 268.836 192.283 268.837H307.829C308.042 268.836 308.252 268.879 308.446 268.965C308.64 269.051 308.814 269.178 308.955 269.336C309.096 269.495 309.203 269.681 309.266 269.884C309.33 270.087 309.349 270.3 309.324 270.511L303.659 338.589C303.636 338.973 303.467 339.332 303.186 339.594C302.905 339.855 302.534 339.999 302.15 339.994Z" fill="white" stroke="#263238" stroke-linecap="round" stroke-linejoin="round"/>
<path d="M259.883 305.59C259.883 309.655 255.474 312.943 250.049 312.943C244.623 312.943 240.199 309.655 240.199 305.59C240.199 301.524 244.608 298.251 250.049 298.251C255.489 298.251 259.883 301.539 259.883 305.59Z" fill="white" stroke="#263238" stroke-linecap="round" stroke-linejoin="round"/>
<path d="M361.709 252.412C363.307 251.165 364.431 249.409 364.893 247.435C365.229 245.955 365.193 244.414 364.788 242.951" stroke="#263238" stroke-linecap="round" stroke-linejoin="round"/>
<path d="M349.782 305.709C349.782 305.709 359.721 299.73 356.478 292.9C353.235 286.07 342.265 281.541 342.265 270.9C342.265 261.723 352.024 258.33 358.391 254.654" stroke="#263238" stroke-linecap="round" stroke-linejoin="round"/>
<path d="M358.959 305.515C358.959 305.515 364.504 301.823 364.504 295.964C364.504 292.034 360.304 289.463 354.759 283.141" stroke="#263238" stroke-linecap="round" stroke-linejoin="round"/>
<path d="M351.695 279.314C351.695 279.314 348.064 276.46 350.739 271.094" stroke="#263238" stroke-linecap="round" stroke-linejoin="round"/>
<path d="M267.55 122.757C269.329 122.383 273.14 120.918 275.711 114.955C275.75 114.865 275.772 114.767 275.774 114.669C275.775 114.57 275.758 114.472 275.722 114.381C275.686 114.289 275.632 114.205 275.563 114.135C275.495 114.064 275.413 114.007 275.322 113.968C275.14 113.892 274.934 113.891 274.75 113.963C274.566 114.036 274.418 114.177 274.336 114.357C271.974 119.827 268.597 121.038 267.192 121.307C269.706 118.264 271.094 114.448 271.122 110.501C271.122 100.129 261.512 91.729 249.66 91.729C237.808 91.729 228.198 100.129 228.198 110.501C228.206 114.289 229.467 117.967 231.785 120.963C229.528 120.844 225.717 121.8 220.889 127.435C220.752 127.577 220.675 127.767 220.675 127.965C220.675 128.163 220.752 128.354 220.889 128.496C221.028 128.611 221.202 128.674 221.383 128.675C221.491 128.675 221.599 128.651 221.697 128.605C221.795 128.558 221.882 128.49 221.951 128.406C228.123 121.217 232.203 122.428 233.026 122.757C231.63 123.524 230.322 124.441 229.125 125.492C222.235 131.694 218.035 143.427 218.573 153.201C219.178 159.684 221.528 165.882 225.373 171.136C230.378 167.555 234.527 162.91 237.524 157.536C239.758 153.588 241.754 149.51 243.503 145.325C243.503 149.704 244.07 154.995 246.372 158.776C248.033 161.763 250.465 164.249 253.415 165.973C256.365 167.698 259.724 168.599 263.141 168.581C264.321 168.597 265.499 168.482 266.654 168.237C266.755 168.211 266.85 168.165 266.932 168.101C267.015 168.036 267.083 167.955 267.132 167.863C272.901 169.089 278.64 168.984 279.522 167.758C280.942 165.801 282.96 159.688 283.632 152.215C284.858 139.541 276.877 128.541 267.55 122.757ZM247.762 157.864C244.863 153.127 244.952 145.4 245.296 140.961L245.49 140.452C245.628 145.018 246.792 149.494 248.895 153.548C250.999 157.602 253.988 161.131 257.641 163.873C259.659 165.267 261.898 166.313 264.262 166.966C260.601 167.22 253.068 166.518 247.762 157.864Z" fill="#263238"/>
<path d="M248.016 134.34C248.016 134.34 246.791 143.397 258.299 152.275C269.807 161.152 280.718 157.655 280.718 157.655" stroke="white" stroke-width="0.5" stroke-linecap="round" stroke-linejoin="round"/>
<path d="M249.705 131.351C249.705 131.351 261.826 149.002 278.566 144.398" stroke="white" stroke-width="0.5" stroke-linecap="round" stroke-linejoin="round"/>
<path d="M243.712 125.477C241.8 124.506 239.659 124.079 237.521 124.243C235.384 124.406 233.332 125.154 231.591 126.403C225.149 130.693 221.921 140.826 221.921 140.826" stroke="white" stroke-width="0.5" stroke-linecap="round" stroke-linejoin="round"/>
<path d="M244.026 130.394C244.026 130.394 238.81 129.004 235.581 132.232C234.008 133.658 232.662 135.316 231.591 137.149" stroke="white" stroke-width="0.5" stroke-linecap="round" stroke-linejoin="round"/>
</svg>
